<svg width="128" height="42" viewBox="0 0 128 42" fill="none" xmlns="http://www.w3.org/2000/svg" preserveAspectRatio="none">
<g filter="url(#filter0_i)">
<path d="M0.59 8.58C-1.31 4.6 1.6 0 6.01 0H121.5C124.82 0 127.5 2.69 127.5 6V36C127.5 39.31 124.82 42 121.5 42H20.29C17.98 42 15.87 40.67 14.88 38.58L0.59 8.58Z" fill="url(#g0)" fill-opacity="0.23"/>
</g>
<path d="M6.01 0.5H121.5C124.54 0.5 127 2.96 127 6V36C127 39.04 124.54 41.5 121.5 41.5H20.29C18.17 41.5 16.24 40.28 15.33 38.36L1.04 8.36C-0.64 4.83 1.8 0.76 5.63 0.51L6.01 0.5Z" stroke="url(#g0)" stroke-width="1"/>
<defs>
<filter id="filter0_i" x="0" y="0" width="128" height="42" filterUnits="userSpaceOnUse">
<feGaussianBlur stdDeviation="3.9"/>
<feComposite in2="SourceAlpha" operator="arithmetic" k2="-1" k3="1"/>
<feColorMatrix values="0 0 0 0 1 0 0 0 0 0.9 0 0 0 0 0.58 0 0 0 1 0"/>
<feBlend mode="normal" in2="SourceGraphic"/>
</filter>
<linearGradient id="g0" x1="0" y1="21" x2="127.5" y2="21" gradientUnits="userSpaceOnUse">
<stop stop-color="#D4AF37"/>
<stop offset="1" stop-color="#FFF6D8"/>
</linearGradient>
</defs>
</svg>
