<svg width="104" height="104" viewBox="0 0 104 104" fill="none" xmlns="http://www.w3.org/2000/svg">
<defs>
<radialGradient id="ballBase" cx="0.55" cy="0.5" r="0.55">
<stop offset="0" stop-color="#000000"/>
<stop offset="1" stop-color="#D4AF37"/>
</radialGradient>
<radialGradient id="ballOrange" cx="0.4" cy="0.45" r="0.7">
<stop offset="0" stop-color="#FA7909"/>
<stop offset="1" stop-color="#FF6060" stop-opacity="0"/>
</radialGradient>
<radialGradient id="ballHl" cx="0.75" cy="0.35" r="0.4">
<stop offset="0" stop-color="#FFF6D8"/>
<stop offset="1" stop-color="#FFF6D8" stop-opacity="0"/>
</radialGradient>
<linearGradient id="ballShine" x1="0.5" y1="0" x2="0.4" y2="1">
<stop offset="0" stop-color="white" stop-opacity="0.4"/>
<stop offset="1" stop-color="white" stop-opacity="0"/>
</linearGradient>
<mask id="circMask">
<circle cx="52" cy="52" r="52" fill="white"/>
</mask>
</defs>
<g mask="url(#circMask)">
<!-- 13 balls in dispenser cluster pattern -->
<g><circle cx="48.6" cy="53.8" r="13.3" fill="url(#ballBase)"/><circle cx="48.6" cy="53.8" r="13.3" fill="url(#ballOrange)"/><circle cx="48.6" cy="53.8" r="13.3" fill="url(#ballHl)"/></g>
<g><circle cx="24.9" cy="51.7" r="13.3" fill="url(#ballBase)"/><circle cx="24.9" cy="51.7" r="13.3" fill="url(#ballOrange)"/><circle cx="24.9" cy="51.7" r="13.3" fill="url(#ballHl)"/></g>
<g><circle cx="13.3" cy="71.0" r="13.3" fill="url(#ballBase)"/><circle cx="13.3" cy="71.0" r="13.3" fill="url(#ballOrange)"/><circle cx="13.3" cy="71.0" r="13.3" fill="url(#ballHl)"/></g>
<g><circle cx="35.1" cy="65.9" r="13.3" fill="url(#ballBase)"/><circle cx="35.1" cy="65.9" r="13.3" fill="url(#ballOrange)"/><circle cx="35.1" cy="65.9" r="13.3" fill="url(#ballHl)"/></g>
<g><circle cx="19.8" cy="86.6" r="13.3" fill="url(#ballBase)"/><circle cx="19.8" cy="86.6" r="13.3" fill="url(#ballOrange)"/><circle cx="19.8" cy="86.6" r="13.3" fill="url(#ballHl)"/></g>
<g><circle cx="33.0" cy="89.8" r="13.3" fill="url(#ballBase)"/><circle cx="33.0" cy="89.8" r="13.3" fill="url(#ballOrange)"/><circle cx="33.0" cy="89.8" r="13.3" fill="url(#ballHl)"/></g>
<g><circle cx="58.3" cy="86.4" r="13.3" fill="url(#ballBase)"/><circle cx="58.3" cy="86.4" r="13.3" fill="url(#ballOrange)"/><circle cx="58.3" cy="86.4" r="13.3" fill="url(#ballHl)"/></g>
<g><circle cx="50.5" cy="74.8" r="13.3" fill="url(#ballBase)"/><circle cx="50.5" cy="74.8" r="13.3" fill="url(#ballOrange)"/><circle cx="50.5" cy="74.8" r="13.3" fill="url(#ballHl)"/></g>
<g><circle cx="64.7" cy="65.9" r="13.3" fill="url(#ballBase)"/><circle cx="64.7" cy="65.9" r="13.3" fill="url(#ballOrange)"/><circle cx="64.7" cy="65.9" r="13.3" fill="url(#ballHl)"/></g>
<g><circle cx="73.7" cy="78.7" r="13.3" fill="url(#ballBase)"/><circle cx="73.7" cy="78.7" r="13.3" fill="url(#ballOrange)"/><circle cx="73.7" cy="78.7" r="13.3" fill="url(#ballHl)"/></g>
<g><circle cx="76.4" cy="96.9" r="13.3" fill="url(#ballBase)"/><circle cx="76.4" cy="96.9" r="13.3" fill="url(#ballOrange)"/><circle cx="76.4" cy="96.9" r="13.3" fill="url(#ballHl)"/></g>
<g><circle cx="51.8" cy="95.4" r="13.3" fill="url(#ballBase)"/><circle cx="51.8" cy="95.4" r="13.3" fill="url(#ballOrange)"/><circle cx="51.8" cy="95.4" r="13.3" fill="url(#ballHl)"/></g>
<g><circle cx="89.1" cy="65.9" r="13.3" fill="url(#ballBase)"/><circle cx="89.1" cy="65.9" r="13.3" fill="url(#ballOrange)"/><circle cx="89.1" cy="65.9" r="13.3" fill="url(#ballHl)"/></g>
<g><circle cx="89.4" cy="82.0" r="13.3" fill="url(#ballBase)"/><circle cx="89.4" cy="82.0" r="13.3" fill="url(#ballOrange)"/><circle cx="89.4" cy="82.0" r="13.3" fill="url(#ballHl)"/></g>
<g><circle cx="73.7" cy="50.4" r="13.3" fill="url(#ballBase)"/><circle cx="73.7" cy="50.4" r="13.3" fill="url(#ballOrange)"/><circle cx="73.7" cy="50.4" r="13.3" fill="url(#ballHl)"/></g>
<g><circle cx="61.6" cy="79.2" r="13.3" fill="url(#ballBase)"/><circle cx="61.6" cy="79.2" r="13.3" fill="url(#ballOrange)"/><circle cx="61.6" cy="79.2" r="13.3" fill="url(#ballHl)"/></g>
</g>
</svg>
