<svg width="18" height="12" viewBox="0 0 18 12" fill="none" xmlns="http://www.w3.org/2000/svg">
<path d="M1 12C0.72 12 0.48 11.9 0.29 11.71C0.1 11.52 0 11.28 0 11C0 10.72 0.1 10.48 0.29 10.29C0.48 10.1 0.72 10 1 10H17C17.28 10 17.52 10.1 17.71 10.29C17.9 10.48 18 10.72 18 11C18 11.28 17.9 11.52 17.71 11.71C17.52 11.91 17.28 12 17 12H1ZM1 7C0.72 7 0.48 6.9 0.29 6.71C0.1 6.52 0 6.28 0 6C0 5.72 0.1 5.48 0.29 5.29C0.48 5.1 0.72 5 1 5H17C17.28 5 17.52 5.1 17.71 5.29C17.9 5.48 18 5.72 18 6C18 6.28 17.9 6.52 17.71 6.71C17.52 6.91 17.28 7 17 7H1ZM1 2C0.72 2 0.48 1.9 0.29 1.71C0.1 1.52 0 1.28 0 1C0 0.72 0.1 0.48 0.29 0.29C0.48 0.1 0.72 0 1 0H17C17.28 0 17.52 0.1 17.71 0.29C17.9 0.48 18 0.72 18 1C18 1.28 17.9 1.52 17.71 1.71C17.52 1.91 17.28 2 17 2H1Z" fill="#D4AF37"/>
</svg>
