<svg width="264" height="138" viewBox="0 0 264 138" fill="none" xmlns="http://www.w3.org/2000/svg">
<g filter="url(#filter0_dddd_1_56543)">
<mask id="path-1-outside-1_1_56543" maskUnits="userSpaceOnUse" x="16.4307" y="50.0519" width="231" height="40" fill="black">
<rect fill="white" x="16.4307" y="50.0519" width="231" height="40"/>
<path d="M17.4399 88.0519V51.8141H32.4093C35.1224 51.8141 37.4639 52.3449 39.4339 53.4066C41.4156 54.4564 42.9432 55.925 44.0167 57.8124C45.0901 59.688 45.6269 61.8703 45.6269 64.3593C45.6269 66.8601 45.0783 69.0483 43.9813 70.9239C42.896 72.7876 41.3448 74.2327 39.3277 75.2589C37.3106 76.2852 34.9159 76.7983 32.1438 76.7983H22.9074V69.8976H30.516C31.8371 69.8976 32.9401 69.6676 33.8248 69.2075C34.7213 68.7475 35.3996 68.1046 35.8596 67.2788C36.3197 66.4413 36.5497 65.4681 36.5497 64.3593C36.5497 63.2387 36.3197 62.2714 35.8596 61.4574C35.3996 60.6317 34.7213 59.9947 33.8248 59.5465C32.9283 59.0982 31.8253 58.8741 30.516 58.8741H26.1986V88.0519H17.4399ZM59.9096 88.0519V51.8141H68.6683V80.9388H83.7438V88.0519H59.9096ZM107.002 51.8141V88.0519H98.2433V51.8141H107.002ZM153.307 51.8141V88.0519H145.875L131.455 67.1373H131.225V88.0519H122.466V51.8141H130.004L144.265 72.6933H144.566V51.8141H153.307ZM168.78 88.0519V51.8141H177.538V67.1373H178.016L189.995 51.8141H200.311L187.465 67.9866L200.541 88.0519H190.066L181.042 73.808L177.538 78.2316V88.0519H168.78ZM245.793 69.933C245.793 73.9201 245.026 77.2997 243.493 80.0718C241.959 82.8439 239.883 84.9495 237.264 86.3886C234.657 87.8278 231.732 88.5473 228.488 88.5473C225.232 88.5473 222.301 87.8219 219.694 86.3709C217.087 84.92 215.017 82.8144 213.483 80.0541C211.962 77.282 211.201 73.9083 211.201 69.933C211.201 65.9459 211.962 62.5663 213.483 59.7942C215.017 57.0221 217.087 54.9165 219.694 53.4773C222.301 52.0382 225.232 51.3186 228.488 51.3186C231.732 51.3186 234.657 52.0382 237.264 53.4773C239.883 54.9165 241.959 57.0221 243.493 59.7942C245.026 62.5663 245.793 65.9459 245.793 69.933ZM236.84 69.933C236.84 67.5737 236.504 65.5802 235.831 63.9523C235.171 62.3244 234.215 61.0917 232.965 60.2542C231.726 59.4167 230.234 58.9979 228.488 58.9979C226.754 58.9979 225.262 59.4167 224.011 60.2542C222.761 61.0917 221.8 62.3244 221.127 63.9523C220.467 65.5802 220.136 67.5737 220.136 69.933C220.136 72.2922 220.467 74.2858 221.127 75.9136C221.8 77.5415 222.761 78.7742 224.011 79.6117C225.262 80.4493 226.754 80.868 228.488 80.868C230.234 80.868 231.726 80.4493 232.965 79.6117C234.215 78.7742 235.171 77.5415 235.831 75.9136C236.504 74.2858 236.84 72.2922 236.84 69.933Z"/>
</mask>
<path d="M17.4399 88.0519V51.8141H32.4093C35.1224 51.8141 37.4639 52.3449 39.4339 53.4066C41.4156 54.4564 42.9432 55.925 44.0167 57.8124C45.0901 59.688 45.6269 61.8703 45.6269 64.3593C45.6269 66.8601 45.0783 69.0483 43.9813 70.9239C42.896 72.7876 41.3448 74.2327 39.3277 75.2589C37.3106 76.2852 34.9159 76.7983 32.1438 76.7983H22.9074V69.8976H30.516C31.8371 69.8976 32.9401 69.6676 33.8248 69.2075C34.7213 68.7475 35.3996 68.1046 35.8596 67.2788C36.3197 66.4413 36.5497 65.4681 36.5497 64.3593C36.5497 63.2387 36.3197 62.2714 35.8596 61.4574C35.3996 60.6317 34.7213 59.9947 33.8248 59.5465C32.9283 59.0982 31.8253 58.8741 30.516 58.8741H26.1986V88.0519H17.4399ZM59.9096 88.0519V51.8141H68.6683V80.9388H83.7438V88.0519H59.9096ZM107.002 51.8141V88.0519H98.2433V51.8141H107.002ZM153.307 51.8141V88.0519H145.875L131.455 67.1373H131.225V88.0519H122.466V51.8141H130.004L144.265 72.6933H144.566V51.8141H153.307ZM168.78 88.0519V51.8141H177.538V67.1373H178.016L189.995 51.8141H200.311L187.465 67.9866L200.541 88.0519H190.066L181.042 73.808L177.538 78.2316V88.0519H168.78ZM245.793 69.933C245.793 73.9201 245.026 77.2997 243.493 80.0718C241.959 82.8439 239.883 84.9495 237.264 86.3886C234.657 87.8278 231.732 88.5473 228.488 88.5473C225.232 88.5473 222.301 87.8219 219.694 86.3709C217.087 84.92 215.017 82.8144 213.483 80.0541C211.962 77.282 211.201 73.9083 211.201 69.933C211.201 65.9459 211.962 62.5663 213.483 59.7942C215.017 57.0221 217.087 54.9165 219.694 53.4773C222.301 52.0382 225.232 51.3186 228.488 51.3186C231.732 51.3186 234.657 52.0382 237.264 53.4773C239.883 54.9165 241.959 57.0221 243.493 59.7942C245.026 62.5663 245.793 65.9459 245.793 69.933ZM236.84 69.933C236.84 67.5737 236.504 65.5802 235.831 63.9523C235.171 62.3244 234.215 61.0917 232.965 60.2542C231.726 59.4167 230.234 58.9979 228.488 58.9979C226.754 58.9979 225.262 59.4167 224.011 60.2542C222.761 61.0917 221.8 62.3244 221.127 63.9523C220.467 65.5802 220.136 67.5737 220.136 69.933C220.136 72.2922 220.467 74.2858 221.127 75.9136C221.8 77.5415 222.761 78.7742 224.011 79.6117C225.262 80.4493 226.754 80.868 228.488 80.868C230.234 80.868 231.726 80.4493 232.965 79.6117C234.215 78.7742 235.171 77.5415 235.831 75.9136C236.504 74.2858 236.84 72.2922 236.84 69.933Z" fill="white"/>
<path d="M17.4399 88.0519H16.6095V88.8823H17.4399V88.0519ZM17.4399 51.8141V50.9836H16.6095V51.8141H17.4399ZM39.4339 53.4066L39.0399 54.1376L39.0451 54.1404L39.4339 53.4066ZM44.0167 57.8124L43.2948 58.223L43.2959 58.2249L44.0167 57.8124ZM43.9813 70.9239L43.2645 70.5046L43.2636 70.506L43.9813 70.9239ZM39.3277 75.2589L39.7043 75.9991V75.9991L39.3277 75.2589ZM22.9074 76.7983H22.077V77.6288H22.9074V76.7983ZM22.9074 69.8976V69.0671H22.077V69.8976H22.9074ZM33.8248 69.2075L33.4456 68.4687L33.4417 68.4707L33.8248 69.2075ZM35.8596 67.2788L36.5851 67.683L36.5875 67.6787L35.8596 67.2788ZM35.8596 61.4574L35.1342 61.8616L35.1367 61.8661L35.8596 61.4574ZM33.8248 59.5465L33.4534 60.2892V60.2892L33.8248 59.5465ZM26.1986 58.8741V58.0436H25.3681V58.8741H26.1986ZM26.1986 88.0519V88.8823H27.029V88.0519H26.1986ZM17.4399 88.0519H18.2704V51.8141H17.4399H16.6095V88.0519H17.4399ZM17.4399 51.8141V52.6445H32.4093V51.8141V50.9836H17.4399V51.8141ZM32.4093 51.8141V52.6445C35.0138 52.6445 37.2142 53.1537 39.0399 54.1376L39.4339 53.4066L39.8278 52.6755C37.7136 51.5361 35.2309 50.9836 32.4093 50.9836V51.8141ZM39.4339 53.4066L39.0451 54.1404C40.8922 55.1189 42.3021 56.4775 43.2948 58.223L44.0167 57.8124L44.7385 57.4019C43.5844 55.3726 41.9391 53.7939 39.8226 52.6727L39.4339 53.4066ZM44.0167 57.8124L43.2959 58.2249C44.2872 59.9569 44.7964 61.9928 44.7964 64.3593H45.6269H46.4573C46.4573 61.7478 45.8931 59.4191 44.7374 57.3999L44.0167 57.8124ZM45.6269 64.3593H44.7964C44.7964 66.7353 44.2765 68.7743 43.2645 70.5046L43.9813 70.9239L44.6981 71.3431C45.8802 69.3222 46.4573 66.9849 46.4573 64.3593H45.6269ZM43.9813 70.9239L43.2636 70.506C42.2628 72.2248 40.8334 73.5612 38.9511 74.5188L39.3277 75.2589L39.7043 75.9991C41.8563 74.9042 43.5293 73.3505 44.6989 71.3417L43.9813 70.9239ZM39.3277 75.2589L38.9511 74.5188C37.074 75.4738 34.814 75.9679 32.1438 75.9679V76.7983V77.6288C35.0178 77.6288 37.5471 77.0966 39.7043 75.9991L39.3277 75.2589ZM32.1438 76.7983V75.9679H22.9074V76.7983V77.6288H32.1438V76.7983ZM22.9074 76.7983H23.7379V69.8976H22.9074H22.077V76.7983H22.9074ZM22.9074 69.8976V70.728H30.516V69.8976V69.0671H22.9074V69.8976ZM30.516 69.8976V70.728C31.9289 70.728 33.1728 70.4826 34.2079 69.9443L33.8248 69.2075L33.4417 68.4707C32.7074 68.8525 31.7454 69.0671 30.516 69.0671V69.8976ZM33.8248 69.2075L34.2039 69.9464C35.2363 69.4166 36.0398 68.6617 36.5851 67.683L35.8596 67.2788L35.1342 66.8747C34.7593 67.5474 34.2063 68.0783 33.4457 68.4687L33.8248 69.2075ZM35.8596 67.2788L36.5875 67.6787C37.1249 66.7002 37.3802 65.5853 37.3802 64.3593H36.5497H35.7193C35.7193 65.3509 35.5144 66.1824 35.1318 66.879L35.8596 67.2788ZM36.5497 64.3593H37.3802C37.3802 63.1239 37.1259 62.01 36.5826 61.0488L35.8596 61.4574L35.1367 61.8661C35.5135 62.5327 35.7193 63.3534 35.7193 64.3593H36.5497ZM35.8596 61.4574L36.5851 61.0532C36.0387 60.0726 35.2326 59.3219 34.1962 58.8037L33.8248 59.5465L33.4534 60.2892C34.21 60.6676 34.7604 61.1908 35.1342 61.8616L35.8596 61.4574ZM33.8248 59.5465L34.1962 58.8037C33.1546 58.2829 31.9162 58.0436 30.516 58.0436V58.8741V59.7045C31.7344 59.7045 32.702 59.9135 33.4534 60.2892L33.8248 59.5465ZM30.516 58.8741V58.0436H26.1986V58.8741V59.7045H30.516V58.8741ZM26.1986 58.8741H25.3681V88.0519H26.1986H27.029V58.8741H26.1986ZM26.1986 88.0519V87.2214H17.4399V88.0519V88.8823H26.1986V88.0519ZM59.9096 88.0519H59.0792V88.8823H59.9096V88.0519ZM59.9096 51.8141V50.9836H59.0792V51.8141H59.9096ZM68.6683 51.8141H69.4987V50.9836H68.6683V51.8141ZM68.6683 80.9388H67.8378V81.7692H68.6683V80.9388ZM83.7438 80.9388H84.5742V80.1083H83.7438V80.9388ZM83.7438 88.0519V88.8823H84.5742V88.0519H83.7438ZM59.9096 88.0519H60.7401V51.8141H59.9096H59.0792V88.0519H59.9096ZM59.9096 51.8141V52.6445H68.6683V51.8141V50.9836H59.9096V51.8141ZM68.6683 51.8141H67.8378V80.9388H68.6683H69.4987V51.8141H68.6683ZM68.6683 80.9388V81.7692H83.7438V80.9388V80.1083H68.6683V80.9388ZM83.7438 80.9388H82.9133V88.0519H83.7438H84.5742V80.9388H83.7438ZM83.7438 88.0519V87.2214H59.9096V88.0519V88.8823H83.7438V88.0519ZM107.002 51.8141H107.832V50.9836H107.002V51.8141ZM107.002 88.0519V88.8823H107.832V88.0519H107.002ZM98.2433 88.0519H97.4129V88.8823H98.2433V88.0519ZM98.2433 51.8141V50.9836H97.4129V51.8141H98.2433ZM107.002 51.8141H106.172V88.0519H107.002H107.832V51.8141H107.002ZM107.002 88.0519V87.2214H98.2433V88.0519V88.8823H107.002V88.0519ZM98.2433 88.0519H99.0738V51.8141H98.2433H97.4129V88.0519H98.2433ZM98.2433 51.8141V52.6445H107.002V51.8141V50.9836H98.2433V51.8141ZM153.307 51.8141H154.137V50.9836H153.307V51.8141ZM153.307 88.0519V88.8823H154.137V88.0519H153.307ZM145.875 88.0519L145.192 88.5233L145.439 88.8823H145.875V88.0519ZM131.455 67.1373L132.138 66.6659L131.891 66.3068H131.455V67.1373ZM131.225 67.1373V66.3068H130.394V67.1373H131.225ZM131.225 88.0519V88.8823H132.055V88.0519H131.225ZM122.466 88.0519H121.635V88.8823H122.466V88.0519ZM122.466 51.8141V50.9836H121.635V51.8141H122.466ZM130.004 51.8141L130.689 51.3457L130.442 50.9836H130.004V51.8141ZM144.265 72.6933L143.579 73.1617L143.827 73.5237H144.265V72.6933ZM144.566 72.6933V73.5237H145.396V72.6933H144.566ZM144.566 51.8141V50.9836H143.736V51.8141H144.566ZM153.307 51.8141H152.477V88.0519H153.307H154.137V51.8141H153.307ZM153.307 88.0519V87.2214H145.875V88.0519V88.8823H153.307V88.0519ZM145.875 88.0519L146.559 87.5805L132.138 66.6659L131.455 67.1373L130.771 67.6087L145.192 88.5233L145.875 88.0519ZM131.455 67.1373V66.3068H131.225V67.1373V67.9677H131.455V67.1373ZM131.225 67.1373H130.394V88.0519H131.225H132.055V67.1373H131.225ZM131.225 88.0519V87.2214H122.466V88.0519V88.8823H131.225V88.0519ZM122.466 88.0519H123.296V51.8141H122.466H121.635V88.0519H122.466ZM122.466 51.8141V52.6445H130.004V51.8141V50.9836H122.466V51.8141ZM130.004 51.8141L129.318 52.2825L143.579 73.1617L144.265 72.6933L144.951 72.2249L130.689 51.3457L130.004 51.8141ZM144.265 72.6933V73.5237H144.566V72.6933V71.8628H144.265V72.6933ZM144.566 72.6933H145.396V51.8141H144.566H143.736V72.6933H144.566ZM144.566 51.8141V52.6445H153.307V51.8141V50.9836H144.566V51.8141ZM168.78 88.0519H167.949V88.8823H168.78V88.0519ZM168.78 51.8141V50.9836H167.949V51.8141H168.78ZM177.538 51.8141H178.369V50.9836H177.538V51.8141ZM177.538 67.1373H176.708V67.9677H177.538V67.1373ZM178.016 67.1373V67.9677H178.421L178.67 67.6488L178.016 67.1373ZM189.995 51.8141V50.9836H189.59L189.341 51.3026L189.995 51.8141ZM200.311 51.8141L200.961 52.3306L202.031 50.9836H200.311V51.8141ZM187.465 67.9866L186.815 67.4701L186.442 67.9387L186.769 68.44L187.465 67.9866ZM200.541 88.0519V88.8823H202.073L201.237 87.5985L200.541 88.0519ZM190.066 88.0519L189.364 88.4963L189.609 88.8823H190.066V88.0519ZM181.042 73.808L181.743 73.3636L181.117 72.3753L180.391 73.2924L181.042 73.808ZM177.538 78.2316L176.887 77.716L176.708 77.9426V78.2316H177.538ZM177.538 88.0519V88.8823H178.369V88.0519H177.538ZM168.78 88.0519H169.61V51.8141H168.78H167.949V88.0519H168.78ZM168.78 51.8141V52.6445H177.538V51.8141V50.9836H168.78V51.8141ZM177.538 51.8141H176.708V67.1373H177.538H178.369V51.8141H177.538ZM177.538 67.1373V67.9677H178.016V67.1373V66.3068H177.538V67.1373ZM178.016 67.1373L178.67 67.6488L190.649 52.3255L189.995 51.8141L189.341 51.3026L177.362 66.6258L178.016 67.1373ZM189.995 51.8141V52.6445H200.311V51.8141V50.9836H189.995V51.8141ZM200.311 51.8141L199.661 51.2976L186.815 67.4701L187.465 67.9866L188.115 68.5031L200.961 52.3306L200.311 51.8141ZM187.465 67.9866L186.769 68.44L199.845 88.5053L200.541 88.0519L201.237 87.5985L188.161 67.5332L187.465 67.9866ZM200.541 88.0519V87.2214H190.066V88.0519V88.8823H200.541V88.0519ZM190.066 88.0519L190.767 87.6074L181.743 73.3636L181.042 73.808L180.34 74.2525L189.364 88.4963L190.066 88.0519ZM181.042 73.808L180.391 73.2924L176.887 77.716L177.538 78.2316L178.189 78.7472L181.693 74.3236L181.042 73.808ZM177.538 78.2316H176.708V88.0519H177.538H178.369V78.2316H177.538ZM177.538 88.0519V87.2214H168.78V88.0519V88.8823H177.538V88.0519ZM243.493 80.0718L242.766 79.6698V79.6698L243.493 80.0718ZM237.264 86.3886L236.864 85.6608L236.863 85.6616L237.264 86.3886ZM219.694 86.3709L220.098 85.6453V85.6453L219.694 86.3709ZM213.483 80.0541L212.755 80.4537L212.757 80.4574L213.483 80.0541ZM213.483 59.7942L212.757 59.3922L212.755 59.3946L213.483 59.7942ZM219.694 53.4773L220.095 54.2044V54.2044L219.694 53.4773ZM237.264 53.4773L236.863 54.2044L236.864 54.2051L237.264 53.4773ZM243.493 59.7942L242.766 60.1962V60.1962L243.493 59.7942ZM235.831 63.9523L235.062 64.2646L235.064 64.2694L235.831 63.9523ZM232.965 60.2542L232.499 60.9422L232.503 60.9442L232.965 60.2542ZM224.011 60.2542L224.474 60.9442V60.9442L224.011 60.2542ZM221.127 63.9523L220.36 63.6353L220.358 63.6401L221.127 63.9523ZM221.127 75.9136L220.358 76.2259L220.36 76.2307L221.127 75.9136ZM224.011 79.6117L224.474 78.9218V78.9218L224.011 79.6117ZM232.965 79.6117L232.503 78.9217L232.499 78.9238L232.965 79.6117ZM235.831 75.9136L235.064 75.5966L235.062 75.6014L235.831 75.9136ZM245.793 69.933H244.963C244.963 73.8152 244.216 77.0486 242.766 79.6698L243.493 80.0718L244.219 80.4738C245.836 77.5507 246.623 74.025 246.623 69.933H245.793ZM243.493 80.0718L242.766 79.6698C241.304 82.3132 239.337 84.3019 236.864 85.6608L237.264 86.3886L237.664 87.1164C240.429 85.5971 242.615 83.3745 244.219 80.4738L243.493 80.0718ZM237.264 86.3886L236.863 85.6616C234.39 87.0269 231.604 87.7169 228.488 87.7169V88.5473V89.3778C231.859 89.3778 234.925 88.6286 237.666 87.1156L237.264 86.3886ZM228.488 88.5473V87.7169C225.36 87.7169 222.57 87.0213 220.098 85.6453L219.694 86.3709L219.29 87.0966C222.032 88.6224 225.104 89.3778 228.488 89.3778V88.5473ZM219.694 86.3709L220.098 85.6453C217.634 84.2741 215.672 82.284 214.209 79.6508L213.483 80.0541L212.757 80.4574C214.361 83.3448 216.54 85.5659 219.29 87.0966L219.694 86.3709ZM213.483 80.0541L214.211 79.6545C212.772 77.0324 212.031 73.8039 212.031 69.933H211.201H210.37C210.37 74.0127 211.151 77.5315 212.755 80.4537L213.483 80.0541ZM211.201 69.933H212.031C212.031 66.0498 212.772 62.8155 214.211 60.1938L213.483 59.7942L212.755 59.3946C211.151 62.317 210.37 65.8419 210.37 69.933H211.201ZM213.483 59.7942L214.21 60.1962C215.673 57.5517 217.634 55.563 220.095 54.2044L219.694 53.4773L219.293 52.7503C216.54 54.2699 214.361 56.4924 212.757 59.3922L213.483 59.7942ZM219.694 53.4773L220.095 54.2044C222.568 52.8393 225.359 52.1491 228.488 52.1491V51.3186V50.4882C225.105 50.4882 222.034 51.2371 219.293 52.7503L219.694 53.4773ZM228.488 51.3186V52.1491C231.604 52.1491 234.39 52.839 236.863 54.2044L237.264 53.4773L237.666 52.7503C234.925 51.2374 231.859 50.4882 228.488 50.4882V51.3186ZM237.264 53.4773L236.864 54.2051C239.337 55.5641 241.304 57.5527 242.766 60.1962L243.493 59.7942L244.219 59.3922C242.615 56.4915 240.429 54.2688 237.664 52.7495L237.264 53.4773ZM243.493 59.7942L242.766 60.1962C244.216 62.8173 244.963 66.0508 244.963 69.933H245.793H246.623C246.623 65.841 245.836 62.3152 244.219 59.3922L243.493 59.7942ZM236.84 69.933H237.67C237.67 67.4998 237.324 65.3915 236.599 63.6353L235.831 63.9523L235.064 64.2694C235.683 65.7688 236.009 67.6477 236.009 69.933H236.84ZM235.831 63.9523L236.601 63.6401C235.888 61.8848 234.837 60.5088 233.427 59.5642L232.965 60.2542L232.503 60.9442C233.593 61.6747 234.453 62.7641 235.062 64.2646L235.831 63.9523ZM232.965 60.2542L233.43 59.5663C232.032 58.6211 230.371 58.1675 228.488 58.1675V58.9979V59.8284C230.097 59.8284 231.42 60.2123 232.499 60.9422L232.965 60.2542ZM228.488 58.9979V58.1675C226.615 58.1675 224.956 58.6218 223.549 59.5642L224.011 60.2542L224.474 60.9442C225.567 60.2116 226.893 59.8284 228.488 59.8284V58.9979ZM224.011 60.2542L223.549 59.5642C222.14 60.5079 221.084 61.8821 220.36 63.6353L221.127 63.9523L221.895 64.2694C222.515 62.7668 223.382 61.6756 224.474 60.9442L224.011 60.2542ZM221.127 63.9523L220.358 63.6401C219.646 65.3948 219.306 67.5013 219.306 69.933H220.136H220.967C220.967 67.6462 221.288 65.7656 221.897 64.2646L221.127 63.9523ZM220.136 69.933H219.306C219.306 72.3647 219.646 74.4712 220.358 76.2259L221.127 75.9136L221.897 75.6014C221.288 74.1003 220.967 72.2197 220.967 69.933H220.136ZM221.127 75.9136L220.36 76.2307C221.084 77.9839 222.14 79.3581 223.549 80.3017L224.011 79.6117L224.474 78.9218C223.382 78.1903 222.515 77.0991 221.895 75.5966L221.127 75.9136ZM224.011 79.6117L223.549 80.3017C224.956 81.2442 226.615 81.6985 228.488 81.6985V80.868V80.0376C226.893 80.0376 225.567 79.6543 224.474 78.9218L224.011 79.6117ZM228.488 80.868V81.6985C230.371 81.6985 232.032 81.2448 233.43 80.2997L232.965 79.6117L232.499 78.9238C231.42 79.6537 230.097 80.0376 228.488 80.0376V80.868ZM232.965 79.6117L233.427 80.3017C234.837 79.3571 235.888 77.9812 236.601 76.2259L235.831 75.9136L235.062 75.6014C234.453 77.1018 233.593 78.1913 232.503 78.9218L232.965 79.6117ZM235.831 75.9136L236.599 76.2307C237.324 74.4744 237.67 72.3661 237.67 69.933H236.84H236.009C236.009 72.2183 235.683 74.0971 235.064 75.5966L235.831 75.9136Z" fill="#B9982C" mask="url(#path-1-outside-1_1_56543)"/>
</g>
<g filter="url(#filter1_d_1_56543)">
<path d="M42.129 104.257H43.2055V105.334H42.129V104.257ZM43.2055 104.257H44.282V105.334H43.2055V104.257ZM44.282 104.257H45.3585V105.334H44.282V104.257ZM45.3585 104.257H46.435V105.334H45.3585V104.257ZM46.435 104.257H47.5115V105.334H46.435V104.257ZM47.5115 104.257H48.588V105.334H47.5115V104.257ZM47.5115 105.334H48.588V106.41H47.5115V105.334ZM48.588 105.334H49.6646V106.41H48.588V105.334ZM46.435 105.334H47.5115V106.41H46.435V105.334ZM45.3585 105.334H46.435V106.41H45.3585V105.334ZM44.282 105.334H45.3585V106.41H44.282V105.334ZM43.2055 105.334H44.282V106.41H43.2055V105.334ZM42.129 105.334H43.2055V106.41H42.129V105.334ZM41.0525 106.41H42.129V107.487H41.0525V106.41ZM41.0525 105.334H42.129V106.41H41.0525V105.334ZM39.976 106.41H41.0525V107.487H39.976V106.41ZM42.129 106.41H43.2055V107.487H42.129V106.41ZM43.2055 106.41H44.282V107.487H43.2055V106.41ZM44.282 106.41H45.3585V107.487H44.282V106.41ZM45.3585 106.41H46.435V107.487H45.3585V106.41ZM46.435 106.41H47.5115V107.487H46.435V106.41ZM47.5115 106.41H48.588V107.487H47.5115V106.41ZM48.588 106.41H49.6646V107.487H48.588V106.41ZM49.6646 106.41H50.7411V107.487H49.6646V106.41ZM49.6646 107.487H50.7411V108.563H49.6646V107.487ZM48.588 107.487H49.6646V108.563H48.588V107.487ZM47.5115 107.487H48.588V108.563H47.5115V107.487ZM49.6646 115.022H50.7411V116.099H49.6646V115.022ZM49.6646 116.099H50.7411V117.175H49.6646V116.099ZM49.6646 117.175H50.7411V118.252H49.6646V117.175ZM48.588 117.175H49.6646V118.252H48.588V117.175ZM48.588 116.099H49.6646V117.175H48.588V116.099ZM48.588 115.022H49.6646V116.099H48.588V115.022ZM47.5115 115.022H48.588V116.099H47.5115V115.022ZM47.5115 116.099H48.588V117.175H47.5115V116.099ZM46.435 116.099H47.5115V117.175H46.435V116.099ZM47.5115 117.175H48.588V118.252H47.5115V117.175ZM48.588 118.252H49.6646V119.328H48.588V118.252ZM47.5115 118.252H48.588V119.328H47.5115V118.252ZM46.435 117.175H47.5115V118.252H46.435V117.175ZM46.435 118.252H47.5115V119.328H46.435V118.252ZM47.5115 119.328H48.588V120.405H47.5115V119.328ZM46.435 119.328H47.5115V120.405H46.435V119.328ZM45.3585 119.328H46.435V120.405H45.3585V119.328ZM44.282 119.328H45.3585V120.405H44.282V119.328ZM43.2055 119.328H44.282V120.405H43.2055V119.328ZM42.129 119.328H43.2055V120.405H42.129V119.328ZM42.129 118.252H43.2055V119.328H42.129V118.252ZM43.2055 118.252H44.282V119.328H43.2055V118.252ZM43.2055 117.175H44.282V118.252H43.2055V117.175ZM44.282 117.175H45.3585V118.252H44.282V117.175ZM45.3585 117.175H46.435V118.252H45.3585V117.175ZM45.3585 118.252H46.435V119.328H45.3585V118.252ZM44.282 118.252H45.3585V119.328H44.282V118.252ZM41.0525 118.252H42.129V119.328H41.0525V118.252ZM42.129 117.175H43.2055V118.252H42.129V117.175ZM43.2055 116.099H44.282V117.175H43.2055V116.099ZM42.129 116.099H43.2055V117.175H42.129V116.099ZM41.0525 116.099H42.129V117.175H41.0525V116.099ZM41.0525 117.175H42.129V118.252H41.0525V117.175ZM39.976 117.175H41.0525V118.252H39.976V117.175ZM39.976 116.099H41.0525V117.175H39.976V116.099ZM39.976 115.022H41.0525V116.099H39.976V115.022ZM39.976 113.946H41.0525V115.022H39.976V113.946ZM39.976 112.869H41.0525V113.946H39.976V112.869ZM39.976 111.793H41.0525V112.869H39.976V111.793ZM39.976 110.716H41.0525V111.793H39.976V110.716ZM39.976 109.64H41.0525V110.716H39.976V109.64ZM39.976 108.563H41.0525V109.64H39.976V108.563ZM39.976 107.487H41.0525V108.563H39.976V107.487ZM41.0525 107.487H42.129V108.563H41.0525V107.487ZM42.129 107.487H43.2055V108.563H42.129V107.487ZM43.2055 107.487H44.282V108.563H43.2055V107.487ZM42.129 108.563H43.2055V109.64H42.129V108.563ZM42.129 109.64H43.2055V110.716H42.129V109.64ZM42.129 110.716H43.2055V111.793H42.129V110.716ZM42.129 111.793H43.2055V112.869H42.129V111.793ZM42.129 112.869H43.2055V113.946H42.129V112.869ZM42.129 113.946H43.2055V115.022H42.129V113.946ZM42.129 115.022H43.2055V116.099H42.129V115.022ZM41.0525 115.022H42.129V116.099H41.0525V115.022ZM41.0525 113.946H42.129V115.022H41.0525V113.946ZM41.0525 112.869H42.129V113.946H41.0525V112.869ZM41.0525 111.793H42.129V112.869H41.0525V111.793ZM41.0525 110.716H42.129V111.793H41.0525V110.716ZM41.0525 109.64H42.129V110.716H41.0525V109.64ZM41.0525 108.563H42.129V109.64H41.0525V108.563ZM45.3585 110.716H46.435V111.793H45.3585V110.716ZM46.435 110.716H47.5115V111.793H46.435V110.716ZM47.5115 110.716H48.588V111.793H47.5115V110.716ZM48.588 110.716H49.6646V111.793H48.588V110.716ZM49.6646 110.716H50.7411V111.793H49.6646V110.716ZM49.6646 111.793H50.7411V112.869H49.6646V111.793ZM49.6646 112.869H50.7411V113.946H49.6646V112.869ZM49.6646 113.946H50.7411V115.022H49.6646V113.946ZM48.588 113.946H49.6646V115.022H48.588V113.946ZM47.5115 113.946H48.588V115.022H47.5115V113.946ZM47.5115 112.869H48.588V113.946H47.5115V112.869ZM47.5115 111.793H48.588V112.869H47.5115V111.793ZM48.588 111.793H49.6646V112.869H48.588V111.793ZM48.588 112.869H49.6646V113.946H48.588V112.869ZM46.435 112.869H47.5115V113.946H46.435V112.869ZM45.3585 112.869H46.435V113.946H45.3585V112.869ZM45.3585 111.793H46.435V112.869H45.3585V111.793ZM46.435 111.793H47.5115V112.869H46.435V111.793ZM65.0093 104.257H66.0858V105.334H65.0093V104.257ZM66.0858 104.257H67.1624V105.334H66.0858V104.257ZM67.1624 104.257H68.2389V105.334H67.1624V104.257ZM68.2389 104.257H69.3154V105.334H68.2389V104.257ZM69.3154 104.257H70.3919V105.334H69.3154V104.257ZM70.3919 104.257H71.4684V105.334H70.3919V104.257ZM70.3919 105.334H71.4684V106.41H70.3919V105.334ZM71.4684 105.334H72.5449V106.41H71.4684V105.334ZM69.3154 105.334H70.3919V106.41H69.3154V105.334ZM68.2389 105.334H69.3154V106.41H68.2389V105.334ZM67.1624 105.334H68.2389V106.41H67.1624V105.334ZM66.0858 105.334H67.1624V106.41H66.0858V105.334ZM65.0093 105.334H66.0858V106.41H65.0093V105.334ZM63.9328 106.41H65.0093V107.487H63.9328V106.41ZM63.9328 105.334H65.0093V106.41H63.9328V105.334ZM62.8563 106.41H63.9328V107.487H62.8563V106.41ZM65.0093 106.41H66.0858V107.487H65.0093V106.41ZM66.0858 106.41H67.1624V107.487H66.0858V106.41ZM67.1624 106.41H68.2389V107.487H67.1624V106.41ZM68.2389 106.41H69.3154V107.487H68.2389V106.41ZM69.3154 106.41H70.3919V107.487H69.3154V106.41ZM70.3919 106.41H71.4684V107.487H70.3919V106.41ZM71.4684 106.41H72.5449V107.487H71.4684V106.41ZM72.5449 106.41H73.6214V107.487H72.5449V106.41ZM72.5449 107.487H73.6214V108.563H72.5449V107.487ZM71.4684 107.487H72.5449V108.563H71.4684V107.487ZM70.3919 107.487H71.4684V108.563H70.3919V107.487ZM69.3154 107.487H70.3919V108.563H69.3154V107.487ZM70.3919 108.563H71.4684V109.64H70.3919V108.563ZM70.3919 109.64H71.4684V110.716H70.3919V109.64ZM70.3919 110.716H71.4684V111.793H70.3919V110.716ZM70.3919 111.793H71.4684V112.869H70.3919V111.793ZM70.3919 112.869H71.4684V113.946H70.3919V112.869ZM71.4684 111.793H72.5449V112.869H71.4684V111.793ZM72.5449 111.793H73.6214V112.869H72.5449V111.793ZM72.5449 110.716H73.6214V111.793H72.5449V110.716ZM72.5449 109.64H73.6214V110.716H72.5449V109.64ZM72.5449 108.563H73.6214V109.64H72.5449V108.563ZM71.4684 108.563H72.5449V109.64H71.4684V108.563ZM71.4684 109.64H72.5449V110.716H71.4684V109.64ZM71.4684 110.716H72.5449V111.793H71.4684V110.716ZM71.4684 112.869H72.5449V113.946H71.4684V112.869ZM71.4684 113.946H72.5449V115.022H71.4684V113.946ZM72.5449 113.946H73.6214V115.022H72.5449V113.946ZM72.5449 112.869H73.6214V113.946H72.5449V112.869ZM72.5449 115.022H73.6214V116.099H72.5449V115.022ZM72.5449 116.099H73.6214V117.175H72.5449V116.099ZM72.5449 117.175H73.6214V118.252H72.5449V117.175ZM71.4684 117.175H72.5449V118.252H71.4684V117.175ZM71.4684 116.099H72.5449V117.175H71.4684V116.099ZM71.4684 115.022H72.5449V116.099H71.4684V115.022ZM70.3919 113.946H71.4684V115.022H70.3919V113.946ZM70.3919 115.022H71.4684V116.099H70.3919V115.022ZM70.3919 116.099H71.4684V117.175H70.3919V116.099ZM69.3154 116.099H70.3919V117.175H69.3154V116.099ZM70.3919 117.175H71.4684V118.252H70.3919V117.175ZM71.4684 118.252H72.5449V119.328H71.4684V118.252ZM70.3919 118.252H71.4684V119.328H70.3919V118.252ZM69.3154 117.175H70.3919V118.252H69.3154V117.175ZM69.3154 118.252H70.3919V119.328H69.3154V118.252ZM70.3919 119.328H71.4684V120.405H70.3919V119.328ZM69.3154 119.328H70.3919V120.405H69.3154V119.328ZM68.2389 119.328H69.3154V120.405H68.2389V119.328ZM67.1624 119.328H68.2389V120.405H67.1624V119.328ZM66.0858 119.328H67.1624V120.405H66.0858V119.328ZM65.0093 119.328H66.0858V120.405H65.0093V119.328ZM65.0093 118.252H66.0858V119.328H65.0093V118.252ZM66.0858 118.252H67.1624V119.328H66.0858V118.252ZM66.0858 117.175H67.1624V118.252H66.0858V117.175ZM67.1624 117.175H68.2389V118.252H67.1624V117.175ZM68.2389 117.175H69.3154V118.252H68.2389V117.175ZM68.2389 118.252H69.3154V119.328H68.2389V118.252ZM67.1624 118.252H68.2389V119.328H67.1624V118.252ZM63.9328 118.252H65.0093V119.328H63.9328V118.252ZM65.0093 117.175H66.0858V118.252H65.0093V117.175ZM66.0858 116.099H67.1624V117.175H66.0858V116.099ZM65.0093 116.099H66.0858V117.175H65.0093V116.099ZM63.9328 116.099H65.0093V117.175H63.9328V116.099ZM63.9328 117.175H65.0093V118.252H63.9328V117.175ZM62.8563 117.175H63.9328V118.252H62.8563V117.175ZM62.8563 116.099H63.9328V117.175H62.8563V116.099ZM62.8563 115.022H63.9328V116.099H62.8563V115.022ZM62.8563 113.946H63.9328V115.022H62.8563V113.946ZM62.8563 112.869H63.9328V113.946H62.8563V112.869ZM62.8563 111.793H63.9328V112.869H62.8563V111.793ZM62.8563 110.716H63.9328V111.793H62.8563V110.716ZM62.8563 109.64H63.9328V110.716H62.8563V109.64ZM62.8563 108.563H63.9328V109.64H62.8563V108.563ZM62.8563 107.487H63.9328V108.563H62.8563V107.487ZM63.9328 107.487H65.0093V108.563H63.9328V107.487ZM65.0093 107.487H66.0858V108.563H65.0093V107.487ZM66.0858 107.487H67.1624V108.563H66.0858V107.487ZM65.0093 108.563H66.0858V109.64H65.0093V108.563ZM65.0093 109.64H66.0858V110.716H65.0093V109.64ZM65.0093 110.716H66.0858V111.793H65.0093V110.716ZM65.0093 111.793H66.0858V112.869H65.0093V111.793ZM65.0093 112.869H66.0858V113.946H65.0093V112.869ZM65.0093 113.946H66.0858V115.022H65.0093V113.946ZM65.0093 115.022H66.0858V116.099H65.0093V115.022ZM63.9328 115.022H65.0093V116.099H63.9328V115.022ZM63.9328 113.946H65.0093V115.022H63.9328V113.946ZM63.9328 112.869H65.0093V113.946H63.9328V112.869ZM63.9328 111.793H65.0093V112.869H63.9328V111.793ZM63.9328 110.716H65.0093V111.793H63.9328V110.716ZM63.9328 109.64H65.0093V110.716H63.9328V109.64ZM63.9328 108.563H65.0093V109.64H63.9328V108.563ZM85.7367 104.257H86.8132V105.334H85.7367V104.257ZM86.8132 104.257H87.8897V105.334H86.8132V104.257ZM87.8897 104.257H88.9662V105.334H87.8897V104.257ZM88.9662 104.257H90.0427V105.334H88.9662V104.257ZM88.9662 105.334H90.0427V106.41H88.9662V105.334ZM88.9662 106.41H90.0427V107.487H88.9662V106.41ZM88.9662 107.487H90.0427V108.563H88.9662V107.487ZM85.7367 105.334H86.8132V106.41H85.7367V105.334ZM85.7367 106.41H86.8132V107.487H85.7367V106.41ZM85.7367 107.487H86.8132V108.563H85.7367V107.487ZM85.7367 109.64H86.8132V110.716H85.7367V109.64ZM85.7367 110.716H86.8132V111.793H85.7367V110.716ZM85.7367 111.793H86.8132V112.869H85.7367V111.793ZM85.7367 112.869H86.8132V113.946H85.7367V112.869ZM85.7367 113.946H86.8132V115.022H85.7367V113.946ZM86.8132 115.022H87.8897V116.099H86.8132V115.022ZM86.8132 116.099H87.8897V117.175H86.8132V116.099ZM86.8132 117.175H87.8897V118.252H86.8132V117.175ZM86.8132 118.252H87.8897V119.328H86.8132V118.252ZM86.8132 119.328H87.8897V120.405H86.8132V119.328ZM85.7367 108.563H86.8132V109.64H85.7367V108.563ZM85.7367 115.022H86.8132V116.099H85.7367V115.022ZM85.7367 116.099H86.8132V117.175H85.7367V116.099ZM85.7367 117.175H86.8132V118.252H85.7367V117.175ZM85.7367 118.252H86.8132V119.328H85.7367V118.252ZM85.7367 119.328H86.8132V120.405H85.7367V119.328ZM87.8897 119.328H88.9662V120.405H87.8897V119.328ZM87.8897 118.252H88.9662V119.328H87.8897V118.252ZM87.8897 117.175H88.9662V118.252H87.8897V117.175ZM87.8897 116.099H88.9662V117.175H87.8897V116.099ZM87.8897 113.946H88.9662V115.022H87.8897V113.946ZM87.8897 112.869H88.9662V113.946H87.8897V112.869ZM87.8897 110.716H88.9662V111.793H87.8897V110.716ZM87.8897 109.64H88.9662V110.716H87.8897V109.64ZM87.8897 108.563H88.9662V109.64H87.8897V108.563ZM87.8897 111.793H88.9662V112.869H87.8897V111.793ZM87.8897 115.022H88.9662V116.099H87.8897V115.022ZM86.8132 113.946H87.8897V115.022H86.8132V113.946ZM86.8132 112.869H87.8897V113.946H86.8132V112.869ZM86.8132 111.793H87.8897V112.869H86.8132V111.793ZM86.8132 110.716H87.8897V111.793H86.8132V110.716ZM86.8132 109.64H87.8897V110.716H86.8132V109.64ZM86.8132 108.563H87.8897V109.64H86.8132V108.563ZM86.8132 107.487H87.8897V108.563H86.8132V107.487ZM86.8132 106.41H87.8897V107.487H86.8132V106.41ZM86.8132 105.334H87.8897V106.41H86.8132V105.334ZM87.8897 105.334H88.9662V106.41H87.8897V105.334ZM87.8897 106.41H88.9662V107.487H87.8897V106.41ZM87.8897 107.487H88.9662V108.563H87.8897V107.487ZM88.9662 108.563H90.0427V109.64H88.9662V108.563ZM88.9662 109.64H90.0427V110.716H88.9662V109.64ZM90.0427 109.64H91.1192V110.716H90.0427V109.64ZM90.0427 110.716H91.1192V111.793H90.0427V110.716ZM88.9662 110.716H90.0427V111.793H88.9662V110.716ZM90.0427 108.563H91.1192V109.64H90.0427V108.563ZM90.0427 107.487H91.1192V108.563H90.0427V107.487ZM90.0427 106.41H91.1192V107.487H90.0427V106.41ZM90.0427 111.793H91.1192V112.869H90.0427V111.793ZM91.1192 111.793H92.1957V112.869H91.1192V111.793ZM91.1192 110.716H92.1957V111.793H91.1192V110.716ZM91.1192 109.64H92.1957V110.716H91.1192V109.64ZM91.1192 108.563H92.1957V109.64H91.1192V108.563ZM90.0427 112.869H91.1192V113.946H90.0427V112.869ZM91.1192 112.869H92.1957V113.946H91.1192V112.869ZM92.1957 112.869H93.2722V113.946H92.1957V112.869ZM92.1957 111.793H93.2722V112.869H92.1957V111.793ZM92.1957 110.716H93.2722V111.793H92.1957V110.716ZM91.1192 115.022H92.1957V116.099H91.1192V115.022ZM91.1192 113.946H92.1957V115.022H91.1192V113.946ZM92.1957 113.946H93.2722V115.022H92.1957V113.946ZM92.1957 115.022H93.2722V116.099H92.1957V115.022ZM93.2722 113.946H94.3487V115.022H93.2722V113.946ZM93.2722 112.869H94.3487V113.946H93.2722V112.869ZM93.2722 115.022H94.3487V116.099H93.2722V115.022ZM93.2722 116.099H94.3487V117.175H93.2722V116.099ZM92.1957 116.099H93.2722V117.175H92.1957V116.099ZM92.1957 117.175H93.2722V118.252H92.1957V117.175ZM93.2722 117.175H94.3487V118.252H93.2722V117.175ZM93.2722 118.252H94.3487V119.328H93.2722V118.252ZM93.2722 119.328H94.3487V120.405H93.2722V119.328ZM94.3487 119.328H95.4253V120.405H94.3487V119.328ZM95.4253 119.328H96.5018V120.405H95.4253V119.328ZM96.5018 119.328H97.5783V120.405H96.5018V119.328ZM96.5018 118.252H97.5783V119.328H96.5018V118.252ZM95.4253 117.175H96.5018V118.252H95.4253V117.175ZM95.4253 116.099H96.5018V117.175H95.4253V116.099ZM95.4253 115.022H96.5018V116.099H95.4253V115.022ZM95.4253 113.946H96.5018V115.022H95.4253V113.946ZM95.4253 112.869H96.5018V113.946H95.4253V112.869ZM96.5018 115.022H97.5783V116.099H96.5018V115.022ZM96.5018 116.099H97.5783V117.175H96.5018V116.099ZM96.5018 117.175H97.5783V118.252H96.5018V117.175ZM95.4253 118.252H96.5018V119.328H95.4253V118.252ZM94.3487 118.252H95.4253V119.328H94.3487V118.252ZM94.3487 117.175H95.4253V118.252H94.3487V117.175ZM94.3487 116.099H95.4253V117.175H94.3487V116.099ZM94.3487 115.022H95.4253V116.099H94.3487V115.022ZM94.3487 113.946H95.4253V115.022H94.3487V113.946ZM94.3487 112.869H95.4253V113.946H94.3487V112.869ZM94.3487 111.793H95.4253V112.869H94.3487V111.793ZM95.4253 111.793H96.5018V112.869H95.4253V111.793ZM96.5018 113.946H97.5783V115.022H96.5018V113.946ZM96.5018 112.869H97.5783V113.946H96.5018V112.869ZM96.5018 111.793H97.5783V112.869H96.5018V111.793ZM96.5018 110.716H97.5783V111.793H96.5018V110.716ZM96.5018 109.64H97.5783V110.716H96.5018V109.64ZM96.5018 108.563H97.5783V109.64H96.5018V108.563ZM95.4253 108.563H96.5018V109.64H95.4253V108.563ZM95.4253 107.487H96.5018V108.563H95.4253V107.487ZM94.3487 108.563H95.4253V109.64H94.3487V108.563ZM94.3487 109.64H95.4253V110.716H94.3487V109.64ZM94.3487 110.716H95.4253V111.793H94.3487V110.716ZM95.4253 110.716H96.5018V111.793H95.4253V110.716ZM95.4253 109.64H96.5018V110.716H95.4253V109.64ZM94.3487 104.257H95.4253V105.334H94.3487V104.257ZM95.4253 104.257H96.5018V105.334H95.4253V104.257ZM96.5018 104.257H97.5783V105.334H96.5018V104.257ZM96.5018 105.334H97.5783V106.41H96.5018V105.334ZM96.5018 106.41H97.5783V107.487H96.5018V106.41ZM96.5018 107.487H97.5783V108.563H96.5018V107.487ZM95.4253 106.41H96.5018V107.487H95.4253V106.41ZM95.4253 105.334H96.5018V106.41H95.4253V105.334ZM94.3487 107.487H95.4253V108.563H94.3487V107.487ZM94.3487 106.41H95.4253V107.487H94.3487V106.41ZM94.3487 105.334H95.4253V106.41H94.3487V105.334ZM110.772 104.257H111.849V105.334H110.772V104.257ZM110.772 105.334H111.849V106.41H110.772V105.334ZM110.772 106.41H111.849V107.487H110.772V106.41ZM110.772 107.487H111.849V108.563H110.772V107.487ZM110.772 108.563H111.849V109.64H110.772V108.563ZM110.772 109.64H111.849V110.716H110.772V109.64ZM110.772 110.716H111.849V111.793H110.772V110.716ZM110.772 111.793H111.849V112.869H110.772V111.793ZM110.772 112.869H111.849V113.946H110.772V112.869ZM110.772 113.946H111.849V115.022H110.772V113.946ZM110.772 115.022H111.849V116.099H110.772V115.022ZM110.772 116.099H111.849V117.175H110.772V116.099ZM110.772 117.175H111.849V118.252H110.772V117.175ZM110.772 118.252H111.849V119.328H110.772V118.252ZM110.772 119.328H111.849V120.405H110.772V119.328ZM109.696 119.328H110.772V120.405H109.696V119.328ZM109.696 118.252H110.772V119.328H109.696V118.252ZM109.696 117.175H110.772V118.252H109.696V117.175ZM109.696 105.334H110.772V106.41H109.696V105.334ZM109.696 104.257H110.772V105.334H109.696V104.257ZM109.696 106.41H110.772V107.487H109.696V106.41ZM109.696 107.487H110.772V108.563H109.696V107.487ZM109.696 108.563H110.772V109.64H109.696V108.563ZM109.696 109.64H110.772V110.716H109.696V109.64ZM109.696 110.716H110.772V111.793H109.696V110.716ZM109.696 111.793H110.772V112.869H109.696V111.793ZM109.696 112.869H110.772V113.946H109.696V112.869ZM109.696 113.946H110.772V115.022H109.696V113.946ZM109.696 115.022H110.772V116.099H109.696V115.022ZM109.696 116.099H110.772V117.175H109.696V116.099ZM111.849 119.328H112.925V120.405H111.849V119.328ZM111.849 118.252H112.925V119.328H111.849V118.252ZM111.849 117.175H112.925V118.252H111.849V117.175ZM111.849 116.099H112.925V117.175H111.849V116.099ZM111.849 113.946H112.925V115.022H111.849V113.946ZM111.849 112.869H112.925V113.946H111.849V112.869ZM111.849 111.793H112.925V112.869H111.849V111.793ZM111.849 110.716H112.925V111.793H111.849V110.716ZM111.849 109.64H112.925V110.716H111.849V109.64ZM111.849 108.563H112.925V109.64H111.849V108.563ZM111.849 104.257H112.925V105.334H111.849V104.257ZM111.849 105.334H112.925V106.41H111.849V105.334ZM111.849 106.41H112.925V107.487H111.849V106.41ZM111.849 107.487H112.925V108.563H111.849V107.487ZM111.849 115.022H112.925V116.099H111.849V115.022ZM112.925 119.328H114.002V120.405H112.925V119.328ZM114.002 119.328H115.078V120.405H114.002V119.328ZM115.078 119.328H116.155V120.405H115.078V119.328ZM115.078 118.252H116.155V119.328H115.078V118.252ZM115.078 117.175H116.155V118.252H115.078V117.175ZM114.002 117.175H115.078V118.252H114.002V117.175ZM114.002 118.252H115.078V119.328H114.002V118.252ZM112.925 118.252H114.002V119.328H112.925V118.252ZM112.925 117.175H114.002V118.252H112.925V117.175ZM116.155 117.175H117.231V118.252H116.155V117.175ZM116.155 118.252H117.231V119.328H116.155V118.252ZM116.155 119.328H117.231V120.405H116.155V119.328ZM117.231 119.328H118.308V120.405H117.231V119.328ZM117.231 118.252H118.308V119.328H117.231V118.252ZM117.231 117.175H118.308V118.252H117.231V117.175ZM118.308 117.175H119.384V118.252H118.308V117.175ZM118.308 118.252H119.384V119.328H118.308V118.252ZM118.308 119.328H119.384V120.405H118.308V119.328ZM112.925 104.257H114.002V105.334H112.925V104.257ZM114.002 104.257H115.078V105.334H114.002V104.257ZM115.078 104.257H116.155V105.334H115.078V104.257ZM116.155 104.257H117.231V105.334H116.155V104.257ZM117.231 104.257H118.308V105.334H117.231V104.257ZM118.308 104.257H119.384V105.334H118.308V104.257ZM118.308 105.334H119.384V106.41H118.308V105.334ZM118.308 106.41H119.384V107.487H118.308V106.41ZM117.231 106.41H118.308V107.487H117.231V106.41ZM116.155 106.41H117.231V107.487H116.155V106.41ZM115.078 106.41H116.155V107.487H115.078V106.41ZM114.002 106.41H115.078V107.487H114.002V106.41ZM114.002 105.334H115.078V106.41H114.002V105.334ZM112.925 105.334H114.002V106.41H112.925V105.334ZM112.925 106.41H114.002V107.487H112.925V106.41ZM115.078 105.334H116.155V106.41H115.078V105.334ZM116.155 105.334H117.231V106.41H116.155V105.334ZM117.231 105.334H118.308V106.41H117.231V105.334ZM112.925 110.716H114.002V111.793H112.925V110.716ZM112.925 111.793H114.002V112.869H112.925V111.793ZM112.925 112.869H114.002V113.946H112.925V112.869ZM114.002 112.869H115.078V113.946H114.002V112.869ZM114.002 111.793H115.078V112.869H114.002V111.793ZM114.002 110.716H115.078V111.793H114.002V110.716ZM115.078 110.716H116.155V111.793H115.078V110.716ZM115.078 111.793H116.155V112.869H115.078V111.793ZM116.155 111.793H117.231V112.869H116.155V111.793ZM116.155 110.716H117.231V111.793H116.155V110.716ZM116.155 112.869H117.231V113.946H116.155V112.869ZM115.078 112.869H116.155V113.946H115.078V112.869ZM117.231 110.716H118.308V111.793H117.231V110.716ZM117.231 111.793H118.308V112.869H117.231V111.793ZM117.231 112.869H118.308V113.946H117.231V112.869ZM147.934 104.257H149.011V105.334H147.934V104.257ZM149.011 104.257H150.087V105.334H149.011V104.257ZM149.011 105.334H150.087V106.41H149.011V105.334ZM150.087 105.334H151.164V106.41H150.087V105.334ZM150.087 106.41H151.164V107.487H150.087V106.41ZM150.087 107.487H151.164V108.563H150.087V107.487ZM150.087 108.563H151.164V109.64H150.087V108.563ZM150.087 104.257H151.164V105.334H150.087V104.257ZM149.011 106.41H150.087V107.487H149.011V106.41ZM149.011 107.487H150.087V108.563H149.011V107.487ZM149.011 108.563H150.087V109.64H149.011V108.563ZM147.934 108.563H149.011V109.64H147.934V108.563ZM147.934 107.487H149.011V108.563H147.934V107.487ZM147.934 106.41H149.011V107.487H147.934V106.41ZM147.934 105.334H149.011V106.41H147.934V105.334ZM149.011 109.64H150.087V110.716H149.011V109.64ZM149.011 110.716H150.087V111.793H149.011V110.716ZM149.011 111.793H150.087V112.869H149.011V111.793ZM149.011 112.869H150.087V113.946H149.011V112.869ZM150.087 109.64H151.164V110.716H150.087V109.64ZM150.087 110.716H151.164V111.793H150.087V110.716ZM150.087 111.793H151.164V112.869H150.087V111.793ZM150.087 112.869H151.164V113.946H150.087V112.869ZM150.087 113.946H151.164V115.022H150.087V113.946ZM149.011 113.946H150.087V115.022H149.011V113.946ZM147.934 113.946H149.011V115.022H147.934V113.946ZM147.934 112.869H149.011V113.946H147.934V112.869ZM147.934 111.793H149.011V112.869H147.934V111.793ZM147.934 110.716H149.011V111.793H147.934V110.716ZM147.934 109.64H149.011V110.716H147.934V109.64ZM147.934 115.022H149.011V116.099H147.934V115.022ZM149.011 115.022H150.087V116.099H149.011V115.022ZM150.087 115.022H151.164V116.099H150.087V115.022ZM151.164 115.022H152.24V116.099H151.164V115.022ZM151.164 116.099H152.24V117.175H151.164V116.099ZM150.087 116.099H151.164V117.175H150.087V116.099ZM149.011 116.099H150.087V117.175H149.011V116.099ZM150.087 117.175H151.164V118.252H150.087V117.175ZM151.164 117.175H152.24V118.252H151.164V117.175ZM151.164 118.252H152.24V119.328H151.164V118.252ZM152.24 119.328H153.317V120.405H152.24V119.328ZM152.24 118.252H153.317V119.328H152.24V118.252ZM153.317 118.252H154.394V119.328H153.317V118.252ZM153.317 117.175H154.394V118.252H153.317V117.175ZM153.317 116.099H154.394V117.175H153.317V116.099ZM152.24 116.099H153.317V117.175H152.24V116.099ZM152.24 117.175H153.317V118.252H152.24V117.175ZM154.394 117.175H155.47V118.252H154.394V117.175ZM154.394 116.099H155.47V117.175H154.394V116.099ZM153.317 115.022H154.394V116.099H153.317V115.022ZM154.394 115.022H155.47V116.099H154.394V115.022ZM155.47 115.022H156.547V116.099H155.47V115.022ZM155.47 116.099H156.547V117.175H155.47V116.099ZM156.547 115.022H157.623V116.099H156.547V115.022ZM156.547 113.946H157.623V115.022H156.547V113.946ZM156.547 112.869H157.623V113.946H156.547V112.869ZM156.547 111.793H157.623V112.869H156.547V111.793ZM155.47 111.793H156.547V112.869H155.47V111.793ZM155.47 110.716H156.547V111.793H155.47V110.716ZM154.394 111.793H155.47V112.869H154.394V111.793ZM154.394 112.869H155.47V113.946H154.394V112.869ZM154.394 113.946H155.47V115.022H154.394V113.946ZM155.47 113.946H156.547V115.022H155.47V113.946ZM155.47 112.869H156.547V113.946H155.47V112.869ZM154.394 104.257H155.47V105.334H154.394V104.257ZM155.47 104.257H156.547V105.334H155.47V104.257ZM155.47 105.334H156.547V106.41H155.47V105.334ZM156.547 105.334H157.623V106.41H156.547V105.334ZM156.547 106.41H157.623V107.487H156.547V106.41ZM156.547 104.257H157.623V105.334H156.547V104.257ZM156.547 107.487H157.623V108.563H156.547V107.487ZM156.547 108.563H157.623V109.64H156.547V108.563ZM156.547 109.64H157.623V110.716H156.547V109.64ZM156.547 110.716H157.623V111.793H156.547V110.716ZM154.394 110.716H155.47V111.793H154.394V110.716ZM154.394 109.64H155.47V110.716H154.394V109.64ZM154.394 108.563H155.47V109.64H154.394V108.563ZM154.394 107.487H155.47V108.563H154.394V107.487ZM154.394 106.41H155.47V107.487H154.394V106.41ZM154.394 105.334H155.47V106.41H154.394V105.334ZM155.47 106.41H156.547V107.487H155.47V106.41ZM155.47 107.487H156.547V108.563H155.47V107.487ZM155.47 108.563H156.547V109.64H155.47V108.563ZM155.47 109.64H156.547V110.716H155.47V109.64ZM157.623 115.022H158.7V116.099H157.623V115.022ZM157.623 116.099H158.7V117.175H157.623V116.099ZM157.623 117.175H158.7V118.252H157.623V117.175ZM157.623 118.252H158.7V119.328H157.623V118.252ZM158.7 119.328H159.776V120.405H158.7V119.328ZM158.7 118.252H159.776V119.328H158.7V118.252ZM159.776 118.252H160.853V119.328H159.776V118.252ZM159.776 117.175H160.853V118.252H159.776V117.175ZM159.776 116.099H160.853V117.175H159.776V116.099ZM158.7 116.099H159.776V117.175H158.7V116.099ZM158.7 117.175H159.776V118.252H158.7V117.175ZM160.853 117.175H161.929V118.252H160.853V117.175ZM160.853 116.099H161.929V117.175H160.853V116.099ZM159.776 115.022H160.853V116.099H159.776V115.022ZM160.853 115.022H161.929V116.099H160.853V115.022ZM161.929 115.022H163.006V116.099H161.929V115.022ZM161.929 116.099H163.006V117.175H161.929V116.099ZM163.006 115.022H164.082V116.099H163.006V115.022ZM163.006 113.946H164.082V115.022H163.006V113.946ZM163.006 112.869H164.082V113.946H163.006V112.869ZM163.006 111.793H164.082V112.869H163.006V111.793ZM161.929 111.793H163.006V112.869H161.929V111.793ZM161.929 110.716H163.006V111.793H161.929V110.716ZM160.853 111.793H161.929V112.869H160.853V111.793ZM160.853 112.869H161.929V113.946H160.853V112.869ZM160.853 113.946H161.929V115.022H160.853V113.946ZM161.929 113.946H163.006V115.022H161.929V113.946ZM161.929 112.869H163.006V113.946H161.929V112.869ZM160.853 104.257H161.929V105.334H160.853V104.257ZM161.929 104.257H163.006V105.334H161.929V104.257ZM161.929 105.334H163.006V106.41H161.929V105.334ZM163.006 105.334H164.082V106.41H163.006V105.334ZM163.006 106.41H164.082V107.487H163.006V106.41ZM163.006 104.257H164.082V105.334H163.006V104.257ZM163.006 107.487H164.082V108.563H163.006V107.487ZM163.006 108.563H164.082V109.64H163.006V108.563ZM163.006 109.64H164.082V110.716H163.006V109.64ZM163.006 110.716H164.082V111.793H163.006V110.716ZM160.853 110.716H161.929V111.793H160.853V110.716ZM160.853 109.64H161.929V110.716H160.853V109.64ZM160.853 108.563H161.929V109.64H160.853V108.563ZM160.853 107.487H161.929V108.563H160.853V107.487ZM160.853 106.41H161.929V107.487H160.853V106.41ZM160.853 105.334H161.929V106.41H160.853V105.334ZM161.929 106.41H163.006V107.487H161.929V106.41ZM161.929 107.487H163.006V108.563H161.929V107.487ZM161.929 108.563H163.006V109.64H161.929V108.563ZM161.929 109.64H163.006V110.716H161.929V109.64ZM156.547 117.175H157.623V118.252H156.547V117.175ZM156.547 116.099H157.623V117.175H156.547V116.099ZM176.208 119.328H177.284V120.405H176.208V119.328ZM177.284 119.328H178.361V120.405H177.284V119.328ZM178.361 119.328H179.437V120.405H178.361V119.328ZM178.361 118.252H179.437V119.328H178.361V118.252ZM178.361 117.175H179.437V118.252H178.361V117.175ZM178.361 116.099H179.437V117.175H178.361V116.099ZM178.361 115.022H179.437V116.099H178.361V115.022ZM178.361 113.946H179.437V115.022H178.361V113.946ZM178.361 112.869H179.437V113.946H178.361V112.869ZM178.361 111.793H179.437V112.869H178.361V111.793ZM178.361 110.716H179.437V111.793H178.361V110.716ZM177.284 110.716H178.361V111.793H177.284V110.716ZM177.284 109.64H178.361V110.716H177.284V109.64ZM176.208 110.716H177.284V111.793H176.208V110.716ZM176.208 111.793H177.284V112.869H176.208V111.793ZM176.208 112.869H177.284V113.946H176.208V112.869ZM176.208 113.946H177.284V115.022H176.208V113.946ZM176.208 115.022H177.284V116.099H176.208V115.022ZM176.208 116.099H177.284V117.175H176.208V116.099ZM176.208 117.175H177.284V118.252H176.208V117.175ZM176.208 118.252H177.284V119.328H176.208V118.252ZM177.284 118.252H178.361V119.328H177.284V118.252ZM177.284 117.175H178.361V118.252H177.284V117.175ZM177.284 116.099H178.361V117.175H177.284V116.099ZM176.208 109.64H177.284V110.716H176.208V109.64ZM178.361 109.64H179.437V110.716H178.361V109.64ZM177.284 111.793H178.361V112.869H177.284V111.793ZM177.284 112.869H178.361V113.946H177.284V112.869ZM177.284 113.946H178.361V115.022H177.284V113.946ZM177.284 115.022H178.361V116.099H177.284V115.022ZM176.208 104.257H177.284V105.334H176.208V104.257ZM177.284 104.257H178.361V105.334H177.284V104.257ZM178.361 104.257H179.437V105.334H178.361V104.257ZM178.361 105.334H179.437V106.41H178.361V105.334ZM178.361 106.41H179.437V107.487H178.361V106.41ZM178.361 107.487H179.437V108.563H178.361V107.487ZM178.361 108.563H179.437V109.64H178.361V108.563ZM177.284 108.563H178.361V109.64H177.284V108.563ZM177.284 107.487H178.361V108.563H177.284V107.487ZM177.284 106.41H178.361V107.487H177.284V106.41ZM177.284 105.334H178.361V106.41H177.284V105.334ZM176.208 105.334H177.284V106.41H176.208V105.334ZM176.208 106.41H177.284V107.487H176.208V106.41ZM176.208 107.487H177.284V108.563H176.208V107.487ZM176.208 108.563H177.284V109.64H176.208V108.563ZM192.643 104.257H193.719V105.334H192.643V104.257ZM192.643 105.334H193.719V106.41H192.643V105.334ZM192.643 106.41H193.719V107.487H192.643V106.41ZM192.643 107.487H193.719V108.563H192.643V107.487ZM192.643 108.563H193.719V109.64H192.643V108.563ZM192.643 109.64H193.719V110.716H192.643V109.64ZM192.643 110.716H193.719V111.793H192.643V110.716ZM192.643 111.793H193.719V112.869H192.643V111.793ZM192.643 112.869H193.719V113.946H192.643V112.869ZM192.643 113.946H193.719V115.022H192.643V113.946ZM192.643 115.022H193.719V116.099H192.643V115.022ZM192.643 116.099H193.719V117.175H192.643V116.099ZM192.643 117.175H193.719V118.252H192.643V117.175ZM192.643 118.252H193.719V119.328H192.643V118.252ZM192.643 119.328H193.719V120.405H192.643V119.328ZM191.566 119.328H192.643V120.405H191.566V119.328ZM191.566 118.252H192.643V119.328H191.566V118.252ZM191.566 117.175H192.643V118.252H191.566V117.175ZM191.566 105.334H192.643V106.41H191.566V105.334ZM191.566 104.257H192.643V105.334H191.566V104.257ZM191.566 106.41H192.643V107.487H191.566V106.41ZM191.566 107.487H192.643V108.563H191.566V107.487ZM191.566 108.563H192.643V109.64H191.566V108.563ZM191.566 109.64H192.643V110.716H191.566V109.64ZM191.566 110.716H192.643V111.793H191.566V110.716ZM191.566 111.793H192.643V112.869H191.566V111.793ZM191.566 112.869H192.643V113.946H191.566V112.869ZM191.566 113.946H192.643V115.022H191.566V113.946ZM191.566 115.022H192.643V116.099H191.566V115.022ZM191.566 116.099H192.643V117.175H191.566V116.099ZM193.719 119.328H194.796V120.405H193.719V119.328ZM193.719 118.252H194.796V119.328H193.719V118.252ZM193.719 117.175H194.796V118.252H193.719V117.175ZM193.719 116.099H194.796V117.175H193.719V116.099ZM193.719 113.946H194.796V115.022H193.719V113.946ZM193.719 112.869H194.796V113.946H193.719V112.869ZM193.719 111.793H194.796V112.869H193.719V111.793ZM193.719 110.716H194.796V111.793H193.719V110.716ZM193.719 109.64H194.796V110.716H193.719V109.64ZM193.719 108.563H194.796V109.64H193.719V108.563ZM193.719 104.257H194.796V105.334H193.719V104.257ZM193.719 105.334H194.796V106.41H193.719V105.334ZM193.719 106.41H194.796V107.487H193.719V106.41ZM193.719 107.487H194.796V108.563H193.719V107.487ZM193.719 115.022H194.796V116.099H193.719V115.022ZM194.796 119.328H195.872V120.405H194.796V119.328ZM195.872 119.328H196.949V120.405H195.872V119.328ZM196.949 119.328H198.025V120.405H196.949V119.328ZM196.949 118.252H198.025V119.328H196.949V118.252ZM196.949 117.175H198.025V118.252H196.949V117.175ZM195.872 117.175H196.949V118.252H195.872V117.175ZM195.872 118.252H196.949V119.328H195.872V118.252ZM194.796 118.252H195.872V119.328H194.796V118.252ZM194.796 117.175H195.872V118.252H194.796V117.175ZM198.025 117.175H199.102V118.252H198.025V117.175ZM198.025 118.252H199.102V119.328H198.025V118.252ZM198.025 119.328H199.102V120.405H198.025V119.328ZM199.102 119.328H200.178V120.405H199.102V119.328ZM199.102 118.252H200.178V119.328H199.102V118.252ZM199.102 117.175H200.178V118.252H199.102V117.175ZM214.442 104.257H215.519V105.334H214.442V104.257ZM215.519 104.257H216.595V105.334H215.519V104.257ZM216.595 104.257H217.672V105.334H216.595V104.257ZM217.672 104.257H218.748V105.334H217.672V104.257ZM218.748 104.257H219.825V105.334H218.748V104.257ZM219.825 104.257H220.902V105.334H219.825V104.257ZM219.825 105.334H220.902V106.41H219.825V105.334ZM220.902 105.334H221.978V106.41H220.902V105.334ZM218.748 105.334H219.825V106.41H218.748V105.334ZM217.672 105.334H218.748V106.41H217.672V105.334ZM216.595 105.334H217.672V106.41H216.595V105.334ZM215.519 105.334H216.595V106.41H215.519V105.334ZM214.442 105.334H215.519V106.41H214.442V105.334ZM213.366 106.41H214.442V107.487H213.366V106.41ZM213.366 105.334H214.442V106.41H213.366V105.334ZM212.289 106.41H213.366V107.487H212.289V106.41ZM214.442 106.41H215.519V107.487H214.442V106.41ZM215.519 106.41H216.595V107.487H215.519V106.41ZM216.595 106.41H217.672V107.487H216.595V106.41ZM217.672 106.41H218.748V107.487H217.672V106.41ZM218.748 106.41H219.825V107.487H218.748V106.41ZM219.825 106.41H220.902V107.487H219.825V106.41ZM220.902 106.41H221.978V107.487H220.902V106.41ZM221.978 106.41H223.055V107.487H221.978V106.41ZM221.978 107.487H223.055V108.563H221.978V107.487ZM220.902 107.487H221.978V108.563H220.902V107.487ZM219.825 107.487H220.902V108.563H219.825V107.487ZM218.748 107.487H219.825V108.563H218.748V107.487ZM219.825 108.563H220.902V109.64H219.825V108.563ZM219.825 109.64H220.902V110.716H219.825V109.64ZM219.825 110.716H220.902V111.793H219.825V110.716ZM219.825 111.793H220.902V112.869H219.825V111.793ZM219.825 112.869H220.902V113.946H219.825V112.869ZM220.902 111.793H221.978V112.869H220.902V111.793ZM221.978 111.793H223.055V112.869H221.978V111.793ZM221.978 110.716H223.055V111.793H221.978V110.716ZM221.978 109.64H223.055V110.716H221.978V109.64ZM221.978 108.563H223.055V109.64H221.978V108.563ZM220.902 108.563H221.978V109.64H220.902V108.563ZM220.902 109.64H221.978V110.716H220.902V109.64ZM220.902 110.716H221.978V111.793H220.902V110.716ZM220.902 112.869H221.978V113.946H220.902V112.869ZM220.902 113.946H221.978V115.022H220.902V113.946ZM221.978 113.946H223.055V115.022H221.978V113.946ZM221.978 112.869H223.055V113.946H221.978V112.869ZM221.978 115.022H223.055V116.099H221.978V115.022ZM221.978 116.099H223.055V117.175H221.978V116.099ZM221.978 117.175H223.055V118.252H221.978V117.175ZM220.902 117.175H221.978V118.252H220.902V117.175ZM220.902 116.099H221.978V117.175H220.902V116.099ZM220.902 115.022H221.978V116.099H220.902V115.022ZM219.825 113.946H220.902V115.022H219.825V113.946ZM219.825 115.022H220.902V116.099H219.825V115.022ZM219.825 116.099H220.902V117.175H219.825V116.099ZM218.748 116.099H219.825V117.175H218.748V116.099ZM219.825 117.175H220.902V118.252H219.825V117.175ZM220.902 118.252H221.978V119.328H220.902V118.252ZM219.825 118.252H220.902V119.328H219.825V118.252ZM218.748 117.175H219.825V118.252H218.748V117.175ZM218.748 118.252H219.825V119.328H218.748V118.252ZM219.825 119.328H220.902V120.405H219.825V119.328ZM218.748 119.328H219.825V120.405H218.748V119.328ZM217.672 119.328H218.748V120.405H217.672V119.328ZM216.595 119.328H217.672V120.405H216.595V119.328ZM215.519 119.328H216.595V120.405H215.519V119.328ZM214.442 119.328H215.519V120.405H214.442V119.328ZM214.442 118.252H215.519V119.328H214.442V118.252ZM215.519 118.252H216.595V119.328H215.519V118.252ZM215.519 117.175H216.595V118.252H215.519V117.175ZM216.595 117.175H217.672V118.252H216.595V117.175ZM217.672 117.175H218.748V118.252H217.672V117.175ZM217.672 118.252H218.748V119.328H217.672V118.252ZM216.595 118.252H217.672V119.328H216.595V118.252ZM213.366 118.252H214.442V119.328H213.366V118.252ZM214.442 117.175H215.519V118.252H214.442V117.175ZM214.442 116.099H215.519V117.175H214.442V116.099ZM213.366 116.099H214.442V117.175H213.366V116.099ZM213.366 117.175H214.442V118.252H213.366V117.175ZM212.289 117.175H213.366V118.252H212.289V117.175ZM212.289 116.099H213.366V117.175H212.289V116.099ZM212.289 115.022H213.366V116.099H212.289V115.022ZM212.289 113.946H213.366V115.022H212.289V113.946ZM212.289 112.869H213.366V113.946H212.289V112.869ZM212.289 111.793H213.366V112.869H212.289V111.793ZM212.289 110.716H213.366V111.793H212.289V110.716ZM212.289 109.64H213.366V110.716H212.289V109.64ZM212.289 108.563H213.366V109.64H212.289V108.563ZM212.289 107.487H213.366V108.563H212.289V107.487ZM213.366 107.487H214.442V108.563H213.366V107.487ZM214.442 107.487H215.519V108.563H214.442V107.487ZM214.442 108.563H215.519V109.64H214.442V108.563ZM214.442 109.64H215.519V110.716H214.442V109.64ZM214.442 110.716H215.519V111.793H214.442V110.716ZM214.442 111.793H215.519V112.869H214.442V111.793ZM214.442 112.869H215.519V113.946H214.442V112.869ZM214.442 113.946H215.519V115.022H214.442V113.946ZM214.442 115.022H215.519V116.099H214.442V115.022ZM213.366 115.022H214.442V116.099H213.366V115.022ZM213.366 113.946H214.442V115.022H213.366V113.946ZM213.366 112.869H214.442V113.946H213.366V112.869ZM213.366 111.793H214.442V112.869H213.366V111.793ZM213.366 110.716H214.442V111.793H213.366V110.716ZM213.366 109.64H214.442V110.716H213.366V109.64ZM213.366 108.563H214.442V109.64H213.366V108.563ZM212.289 118.252H213.366V119.328H212.289V118.252ZM212.289 119.328H213.366V120.405H212.289V119.328ZM213.366 119.328H214.442V120.405H213.366V119.328ZM213.366 104.257H214.442V105.334H213.366V104.257ZM212.289 104.257H213.366V105.334H212.289V104.257ZM212.289 105.334H213.366V106.41H212.289V105.334Z" fill="url(#paint0_linear_1_56543)"/>
</g>
<mask id="mask0_1_56543" style="mask-type:alpha" maskUnits="userSpaceOnUse" x="217" y="58" width="24" height="25">
<circle cx="228.964" cy="70.2423" r="11.9032" fill="#D9D9D9"/>
</mask>
<g mask="url(#mask0_1_56543)">
<circle cx="228.964" cy="70.2423" r="11.9032" fill="url(#paint1_radial_1_56543)"/>
<circle cx="228.964" cy="70.2423" r="11.9032" fill="url(#paint2_radial_1_56543)"/>
<circle cx="228.964" cy="70.2423" r="11.9032" fill="url(#paint3_radial_1_56543)"/>
<g filter="url(#filter2_f_1_56543)">
<circle cx="228.988" cy="70.2185" r="11.8794" fill="url(#paint4_linear_1_56543)" fill-opacity="0.6"/>
</g>
</g>
<g filter="url(#filter3_dddd_1_56543)">
<path d="M22.7354 17.2318L52.4252 17.2318C67.3487 17.2318 81.562 23.6049 91.4892 34.7477L96.2302 40.0692L114.124 25.1573C119.708 20.5043 127.748 20.2675 133.596 24.5837L158.514 42.9758L176.665 32.7855C180.072 30.8729 184.246 30.9502 187.58 32.9874L219.552 52.5259" stroke="url(#paint5_linear_1_56543)" stroke-width="1.24567" stroke-dasharray="6.64 6.64"/>
</g>
<defs>
<filter id="filter0_dddd_1_56543" x="0.000377655" y="33.8792" width="263.232" height="72.1076" filterUnits="userSpaceOnUse" color-interpolation-filters="sRGB">
<feFlood flood-opacity="0" result="BackgroundImageFix"/>
<feColorMatrix in="SourceAlpha" type="matrix" values="0 0 0 0 0 0 0 0 0 0 0 0 0 0 0 0 0 0 127 0" result="hardAlpha"/>
<feOffset/>
<feGaussianBlur stdDeviation="8.3045"/>
<feComposite in2="hardAlpha" operator="out"/>
<feColorMatrix type="matrix" values="0 0 0 0 0.831373 0 0 0 0 0.686275 0 0 0 0 0.215686 0 0 0 1 0"/>
<feBlend mode="normal" in2="BackgroundImageFix" result="effect1_dropShadow_1_56543"/>
<feColorMatrix in="SourceAlpha" type="matrix" values="0 0 0 0 0 0 0 0 0 0 0 0 0 0 0 0 0 0 127 0" result="hardAlpha"/>
<feOffset/>
<feGaussianBlur stdDeviation="6.22837"/>
<feComposite in2="hardAlpha" operator="out"/>
<feColorMatrix type="matrix" values="0 0 0 0 0.831373 0 0 0 0 0.686275 0 0 0 0 0.215686 0 0 0 1 0"/>
<feBlend mode="normal" in2="effect1_dropShadow_1_56543" result="effect2_dropShadow_1_56543"/>
<feColorMatrix in="SourceAlpha" type="matrix" values="0 0 0 0 0 0 0 0 0 0 0 0 0 0 0 0 0 0 127 0" result="hardAlpha"/>
<feOffset/>
<feGaussianBlur stdDeviation="4.15225"/>
<feComposite in2="hardAlpha" operator="out"/>
<feColorMatrix type="matrix" values="0 0 0 0 0.831373 0 0 0 0 0.686275 0 0 0 0 0.215686 0 0 0 1 0"/>
<feBlend mode="normal" in2="effect2_dropShadow_1_56543" result="effect3_dropShadow_1_56543"/>
<feColorMatrix in="SourceAlpha" type="matrix" values="0 0 0 0 0 0 0 0 0 0 0 0 0 0 0 0 0 0 127 0" result="hardAlpha"/>
<feOffset/>
<feGaussianBlur stdDeviation="2.07612"/>
<feComposite in2="hardAlpha" operator="out"/>
<feColorMatrix type="matrix" values="0 0 0 0 1 0 0 0 0 1 0 0 0 0 1 0 0 0 1 0"/>
<feBlend mode="normal" in2="effect3_dropShadow_1_56543" result="effect4_dropShadow_1_56543"/>
<feBlend mode="normal" in="SourceGraphic" in2="effect4_dropShadow_1_56543" result="shape"/>
</filter>
<filter id="filter1_d_1_56543" x="23.3666" y="87.6482" width="216.297" height="49.3656" filterUnits="userSpaceOnUse" color-interpolation-filters="sRGB">
<feFlood flood-opacity="0" result="BackgroundImageFix"/>
<feColorMatrix in="SourceAlpha" type="matrix" values="0 0 0 0 0 0 0 0 0 0 0 0 0 0 0 0 0 0 127 0" result="hardAlpha"/>
<feOffset/>
<feGaussianBlur stdDeviation="8.3045"/>
<feComposite in2="hardAlpha" operator="out"/>
<feColorMatrix type="matrix" values="0 0 0 0 0.831373 0 0 0 0 0.686275 0 0 0 0 0.215686 0 0 0 1 0"/>
<feBlend mode="normal" in2="BackgroundImageFix" result="effect1_dropShadow_1_56543"/>
<feBlend mode="normal" in="SourceGraphic" in2="effect1_dropShadow_1_56543" result="shape"/>
</filter>
<filter id="filter2_f_1_56543" x="199.897" y="41.1277" width="58.1816" height="58.1817" filterUnits="userSpaceOnUse" color-interpolation-filters="sRGB">
<feFlood flood-opacity="0" result="BackgroundImageFix"/>
<feBlend mode="normal" in="SourceGraphic" in2="BackgroundImageFix" result="shape"/>
<feGaussianBlur stdDeviation="8.6057" result="effect1_foregroundBlur_1_56543"/>
</filter>
<filter id="filter3_dddd_1_56543" x="6.12635" y="1.14441e-05" width="230.36" height="69.6664" filterUnits="userSpaceOnUse" color-interpolation-filters="sRGB">
<feFlood flood-opacity="0" result="BackgroundImageFix"/>
<feColorMatrix in="SourceAlpha" type="matrix" values="0 0 0 0 0 0 0 0 0 0 0 0 0 0 0 0 0 0 127 0" result="hardAlpha"/>
<feOffset/>
<feGaussianBlur stdDeviation="8.3045"/>
<feComposite in2="hardAlpha" operator="out"/>
<feColorMatrix type="matrix" values="0 0 0 0 0.831373 0 0 0 0 0.686275 0 0 0 0 0.215686 0 0 0 1 0"/>
<feBlend mode="normal" in2="BackgroundImageFix" result="effect1_dropShadow_1_56543"/>
<feColorMatrix in="SourceAlpha" type="matrix" values="0 0 0 0 0 0 0 0 0 0 0 0 0 0 0 0 0 0 127 0" result="hardAlpha"/>
<feOffset/>
<feGaussianBlur stdDeviation="6.22837"/>
<feComposite in2="hardAlpha" operator="out"/>
<feColorMatrix type="matrix" values="0 0 0 0 0.831373 0 0 0 0 0.686275 0 0 0 0 0.215686 0 0 0 1 0"/>
<feBlend mode="normal" in2="effect1_dropShadow_1_56543" result="effect2_dropShadow_1_56543"/>
<feColorMatrix in="SourceAlpha" type="matrix" values="0 0 0 0 0 0 0 0 0 0 0 0 0 0 0 0 0 0 127 0" result="hardAlpha"/>
<feOffset/>
<feGaussianBlur stdDeviation="4.15225"/>
<feComposite in2="hardAlpha" operator="out"/>
<feColorMatrix type="matrix" values="0 0 0 0 0.831373 0 0 0 0 0.686275 0 0 0 0 0.215686 0 0 0 1 0"/>
<feBlend mode="normal" in2="effect2_dropShadow_1_56543" result="effect3_dropShadow_1_56543"/>
<feColorMatrix in="SourceAlpha" type="matrix" values="0 0 0 0 0 0 0 0 0 0 0 0 0 0 0 0 0 0 127 0" result="hardAlpha"/>
<feOffset/>
<feGaussianBlur stdDeviation="2.07612"/>
<feComposite in2="hardAlpha" operator="out"/>
<feColorMatrix type="matrix" values="0 0 0 0 1 0 0 0 0 1 0 0 0 0 1 0 0 0 1 0"/>
<feBlend mode="normal" in2="effect3_dropShadow_1_56543" result="effect4_dropShadow_1_56543"/>
<feBlend mode="normal" in="SourceGraphic" in2="effect4_dropShadow_1_56543" result="shape"/>
</filter>
<linearGradient id="paint0_linear_1_56543" x1="38.5137" y1="112.405" x2="224.514" y2="112.405" gradientUnits="userSpaceOnUse">
<stop stop-color="white"/>
<stop offset="1" stop-color="#D47B37"/>
</linearGradient>
<radialGradient id="paint1_radial_1_56543" cx="0" cy="0" r="1" gradientUnits="userSpaceOnUse" gradientTransform="translate(230.583 67.6236) rotate(114.341) scale(12.0717)">
<stop/>
<stop offset="1" stop-color="#D4AF37"/>
</radialGradient>
<radialGradient id="paint2_radial_1_56543" cx="0" cy="0" r="1" gradientUnits="userSpaceOnUse" gradientTransform="translate(222.941 64.8383) rotate(56.3847) scale(15.1797)">
<stop stop-color="#FA7909"/>
<stop offset="1" stop-color="#FF6060" stop-opacity="0"/>
</radialGradient>
<radialGradient id="paint3_radial_1_56543" cx="0" cy="0" r="1" gradientUnits="userSpaceOnUse" gradientTransform="translate(237.082 64.0765) rotate(135.22) scale(8.7536)">
<stop stop-color="white"/>
<stop offset="1" stop-color="white" stop-opacity="0"/>
</radialGradient>
<linearGradient id="paint4_linear_1_56543" x1="232.178" y1="61.7434" x2="225.679" y2="75.8607" gradientUnits="userSpaceOnUse">
<stop stop-color="white" stop-opacity="0.6"/>
<stop offset="1" stop-color="white" stop-opacity="0"/>
</linearGradient>
<linearGradient id="paint5_linear_1_56543" x1="18.1679" y1="6.85119" x2="158.099" y2="40.0692" gradientUnits="userSpaceOnUse">
<stop stop-color="#D4AF37"/>
<stop offset="1" stop-color="#E49B0D"/>
</linearGradient>
</defs>
</svg>
