<svg width="24" height="24" viewBox="0 0 24 24" fill="none" xmlns="http://www.w3.org/2000/svg">
<path d="M24 9.38C22.75 7.61 21.11 6.07 19.11 4.92C17.76 4.13 16.33 3.58 14.88 3.25C16.93 2.99 19.05 3.14 21.09 3.74C19.12 2.82 16.93 2.31 14.62 2.31C13.05 2.31 11.54 2.54 10.12 2.98C11.76 1.73 13.67 0.81 15.74 0.3C13.58 0.49 11.42 1.14 9.42 2.3C8.07 3.08 6.88 4.04 5.86 5.13C6.66 3.22 7.85 1.47 9.38 0C7.61 1.25 6.07 2.89 4.92 4.89C4.13 6.24 3.58 7.67 3.25 9.12C2.99 7.07 3.14 4.95 3.74 2.91C2.82 4.88 2.31 7.07 2.31 9.38C2.31 10.95 2.54 12.46 2.98 13.88C1.73 12.23 0.81 10.33 0.3 8.26C0.49 10.42 1.14 12.58 2.3 14.58C3.08 15.93 4.04 17.12 5.13 18.14C3.22 17.34 1.47 16.15 0 14.61C1.25 16.39 2.89 17.93 4.89 19.08C6.24 19.87 7.67 20.42 9.12 20.75C7.07 21.01 4.95 20.86 2.91 20.26C4.88 21.18 7.07 21.69 9.38 21.69C10.95 21.69 12.46 21.46 13.88 21.02C12.24 22.27 10.33 23.19 8.26 23.7C10.42 23.51 12.58 22.85 14.58 21.7C15.93 20.92 17.12 19.96 18.14 18.87C17.34 20.78 16.15 22.53 14.61 24C16.39 22.75 17.93 21.11 19.08 19.11C19.87 17.76 20.42 16.33 20.75 14.88C21.01 16.93 20.86 19.05 20.26 21.09C21.18 19.12 21.69 16.93 21.69 14.62C21.69 13.05 21.46 11.54 21.02 10.12C22.27 11.76 23.19 13.67 23.7 15.74C23.51 13.58 22.85 11.42 21.7 9.42C20.92 8.07 19.96 6.88 18.87 5.86C20.78 6.66 22.53 7.85 24 9.38ZM15.46 8.91C16.01 9.42 16.49 10.02 16.89 10.7C17.47 11.71 17.8 12.79 17.89 13.88C17.64 12.84 17.17 11.88 16.54 11.05C16.76 11.77 16.88 12.53 16.88 13.32C16.88 14.48 16.62 15.59 16.16 16.58C16.46 15.55 16.54 14.48 16.41 13.45C16.24 14.18 15.96 14.9 15.57 15.58C14.99 16.59 14.21 17.42 13.32 18.04C14.09 17.3 14.69 16.42 15.09 15.46C14.58 16.01 13.98 16.49 13.3 16.89C12.29 17.47 11.21 17.8 10.12 17.89C11.16 17.64 12.12 17.17 12.95 16.54C12.23 16.76 11.47 16.88 10.68 16.88C9.52 16.88 8.41 16.62 7.42 16.16C8.45 16.46 9.52 16.54 10.55 16.41C9.82 16.24 9.1 15.96 8.42 15.57C7.41 14.99 6.58 14.21 5.96 13.32C6.7 14.09 7.58 14.69 8.54 15.09C7.99 14.58 7.51 13.98 7.11 13.3C6.53 12.29 6.2 11.21 6.11 10.12C6.36 11.16 6.83 12.12 7.46 12.95C7.24 12.23 7.12 11.47 7.12 10.68C7.12 9.52 7.38 8.41 7.84 7.42C7.54 8.45 7.46 9.52 7.59 10.55C7.76 9.82 8.04 9.1 8.43 8.42C9.01 7.41 9.79 6.58 10.68 5.96C9.91 6.7 9.31 7.58 8.91 8.54C9.42 7.99 10.02 7.51 10.7 7.11C11.71 6.53 12.79 6.2 13.88 6.11C12.84 6.36 11.88 6.83 11.05 7.46C11.77 7.24 12.53 7.12 13.32 7.12C14.48 7.12 15.59 7.38 16.58 7.84C15.55 7.54 14.48 7.46 13.45 7.59C14.18 7.76 14.9 8.04 15.58 8.43C16.59 9.01 17.42 9.79 18.04 10.68C17.3 9.91 16.42 9.31 15.46 8.91Z" fill="#FFE695"/>
</svg>
