<svg width="23" height="23" viewBox="0 0 23 23" fill="none" xmlns="http://www.w3.org/2000/svg">
<path d="M16.15 0C17.47 2.25 17.72 4.83 17.05 7.17C15.68 5.85 13.92 4.78 12.1 3.8C14.82 7.36 14.83 9.83 14.6 12.4C13.45 8.32 9.3 6.22 5.74 7.62C8.25 7.51 10.62 9.12 11.31 11.59C12.1 14.44 10.44 17.45 7.51 18.07C6.09 18.36 4.74 18.12 3.56 17.49C3.57 17.49 3.58 17.49 3.59 17.49C1.81 16.53 1.29 14.88 1.98 13.72C2.05 13.55 2.15 13.4 2.28 13.26C2.73 12.76 3.36 12.65 3.68 13.02C4 13.39 3.9 14.09 3.45 14.59C3.13 14.94 2.73 15.1 2.41 15.03C2.58 15.5 2.89 15.95 3.37 16.34C5.2 15.81 5.82 13.69 4.93 12.12C6.68 13.42 6.19 16.02 4.24 16.86C4.51 16.98 4.81 17.09 5.14 17.17C6.28 16.66 7.22 15.59 7.6 14.19C8.22 11.88 7.07 9.55 5.01 9C3.69 8.64 2.32 9.1 1.35 10.1C0.71 10.7 0.26 11.51 0.08 12.51L0.1 12.49C0.01 12.91 -0.02 13.32 0.01 13.73C-0.18 18.37 2.65 20.71 7.47 22.02C10.48 22.83 13.71 22.1 16.09 20.33C20.66 17.34 23.18 11.52 21.79 6.03C21.55 6.95 21.21 7.84 20.76 8.69C20.96 5.28 19.28 1.87 16.15 0ZM5.52 3.93C3 3.92 0.58 5.41 0.08 10.29C0.76 9.3 1.76 8.59 2.94 8.2C3.26 5.64 5.5 4.13 8.12 4.43C7.29 4.13 6.4 3.94 5.52 3.93ZM18.97 5.95C21.01 10.01 18.54 16.35 15 18.97C12.78 20.82 9.33 21.54 5.11 20C16.63 21.01 18.65 12.94 14.91 6.64C16.89 8.65 17.76 11.01 17.72 13.22C18.74 10.91 19.23 8.31 18.97 5.95ZM4.19 9.74C5.82 9.76 7.32 11.06 6.79 14.04C6.75 11.51 3.38 8.78 0.87 12.68C1.03 10.82 2.66 9.72 4.19 9.74ZM12.84 11.69C15.52 13.87 13.51 18.99 8.24 18.85C10.96 18.47 14.07 14.67 12.84 11.69Z" fill="#FFE695"/>
</svg>
