<svg width="405" height="103" viewBox="0 0 405 103" fill="none" xmlns="http://www.w3.org/2000/svg" preserveAspectRatio="none">
<g filter="url(#f)">
<path d="M41.18 34.2C42.03 31.8 44.29 30.2 46.84 30.2H368.22C372.36 30.2 375.26 34.3 373.88 38.2L363.25 68.2C362.4 70.6 360.13 72.2 357.59 72.2H36.2C32.06 72.2 29.17 68.1 30.55 64.2L41.18 34.2Z" fill="black"/>
<path d="M41.18 34.2C42.03 31.8 44.29 30.2 46.84 30.2H368.22C372.36 30.2 375.26 34.3 373.88 38.2L363.25 68.2C362.4 70.6 360.13 72.2 357.59 72.2H36.2C32.06 72.2 29.17 68.1 30.55 64.2L41.18 34.2Z" fill="url(#g0)" fill-opacity="0.23"/>
<path d="M46.84 31.2H368.22C371.67 31.2 374.09 34.62 372.93 37.87L362.3 67.87C361.6 69.87 359.71 71.2 357.59 71.2H36.2C32.75 71.2 30.34 67.78 31.49 64.53L42.12 34.53C42.83 32.53 44.72 31.2 46.84 31.2Z" stroke="url(#g1)" stroke-width="2"/>
</g>
<defs>
<filter id="f" x="0" y="0" width="405" height="103" filterUnits="userSpaceOnUse">
<feGaussianBlur stdDeviation="6"/>
<feColorMatrix values="0 0 0 0 0 0 0 0 0 0.66 0 0 0 0 0.57 0 0 0 0.6 0"/>
<feBlend in="SourceGraphic"/>
</filter>
<linearGradient id="g0" x1="42.6" y1="51.2" x2="376.7" y2="51.2" gradientUnits="userSpaceOnUse">
<stop stop-color="#D4AF37"/>
<stop offset="1" stop-color="#FFF6D8"/>
</linearGradient>
<linearGradient id="g1" x1="42.6" y1="51.2" x2="376.7" y2="51.2" gradientUnits="userSpaceOnUse">
<stop stop-color="#FFE695"/>
<stop offset="1" stop-color="#00A991"/>
</linearGradient>
</defs>
</svg>
