<svg width="22" height="22" viewBox="0 0 22 22" fill="none" xmlns="http://www.w3.org/2000/svg">
<path d="M14 0V21.42L4.737 16.21H0V5.21H4.737L14 0ZM3.999 7.21H2V14.21H3.999V7.21ZM5.999 14.625L12 18V3.42L5.999 6.794V14.625ZM19.979 5.692L20.582 6.49C21.5 7.71 22 9.19 22 10.71C22 12.23 21.5 13.72 20.58 14.93L19.976 15.728L18.381 14.522L18.984 13.724C19.64 12.86 20 11.8 20 10.71C20 9.62 19.64 8.56 18.986 7.694L18.383 6.897L19.979 5.692ZM17.186 7.8L17.789 8.598C18.25 9.21 18.5 9.95 18.5 10.71C18.5 11.47 18.25 12.21 17.79 12.82L17.184 13.616L15.59 12.41L16.19 11.61C16.39 11.35 16.5 11.04 16.5 10.71C16.5 10.38 16.39 10.06 16.19 9.8L15.59 9.006L17.186 7.8Z" fill="#D4AF37"/>
</svg>
