<svg width="261" height="42" viewBox="0 0 261 42" fill="none" xmlns="http://www.w3.org/2000/svg">
<path d="M9.50293 0.5H255C258.038 0.5 260.5 2.96243 260.5 6V36C260.5 39.0376 258.038 41.5 255 41.5H23.7881C21.6668 41.4999 19.7343 40.2795 18.8223 38.3643L4.53711 8.36426C2.79934 4.71449 5.46051 0.5 9.50293 0.5Z" fill="url(#paint0_linear_1611_187)" fill-opacity="0.23" stroke="url(#paint1_linear_1611_187)"/>
<mask id="mask0_1611_187" style="mask-type:alpha" maskUnits="userSpaceOnUse" x="3" y="0" width="258" height="42">
<path d="M4.08553 8.57961C2.18951 4.59798 5.09267 0 9.50269 0H255C258.314 0 261 2.68629 261 6V36C261 39.3137 258.314 42 255 42H23.7884C21.4742 42 19.3662 40.669 18.3712 38.5796L4.08553 8.57961Z" fill="url(#paint2_linear_1611_187)" fill-opacity="0.23"/>
</mask>
<g mask="url(#mask0_1611_187)">
<rect width="289" height="8.53846" fill="#7A682B"/>
<rect width="289" height="8.53846" fill="#7A682B"/>
<rect y="11.3846" width="289" height="8.53846" fill="#7A682B"/>
<rect y="32.2563" width="289" height="8.53846" fill="#7A682B"/>
<rect y="22.7693" width="289" height="6.64103" fill="#7A682B"/>
</g>
<defs>
<linearGradient id="paint0_linear_1611_187" x1="0" y1="21" x2="244.5" y2="21" gradientUnits="userSpaceOnUse">
<stop stop-color="#D4AF37"/>
<stop offset="1" stop-color="#FFF6D8" stop-opacity="0"/>
</linearGradient>
<linearGradient id="paint1_linear_1611_187" x1="0" y1="21" x2="131" y2="21" gradientUnits="userSpaceOnUse">
<stop stop-color="#D4AF37"/>
<stop offset="1" stop-color="#FFF6D8" stop-opacity="0"/>
</linearGradient>
<linearGradient id="paint2_linear_1611_187" x1="0" y1="21" x2="244.5" y2="21" gradientUnits="userSpaceOnUse">
<stop stop-color="#D4AF37"/>
<stop offset="1" stop-color="#FFF6D8" stop-opacity="0"/>
</linearGradient>
</defs>
</svg>
