<svg width="78" height="78" viewBox="0 0 78 78" fill="none" xmlns="http://www.w3.org/2000/svg">
<g clip-path="url(#clip0_1611_392)">
<circle cx="39" cy="39" r="26" fill="black"/>
<path d="M78 30.5011C73.9521 24.7345 68.6164 19.7334 62.1121 15.9793C57.7084 13.4363 53.0778 11.6425 48.3689 10.5555C55.0316 9.71164 61.8983 10.2062 68.5479 12.1469C62.1545 9.16975 55.025 7.50816 47.5071 7.50816C42.4227 7.50816 37.5147 8.26877 32.8923 9.68226C38.2345 5.62459 44.4222 2.62133 51.1404 0.976061C44.1219 1.59793 37.1246 3.7198 30.6202 7.47389C26.2165 10.0169 22.3466 13.1295 19.0511 16.6649C21.6496 10.4788 25.5049 4.784 30.5011 0C24.7345 4.04788 19.7334 9.38357 15.9793 15.8879C13.4363 20.2916 11.6425 24.9222 10.5555 29.6311C9.71164 22.9684 10.2062 16.1017 12.1469 9.45212C9.16975 15.8455 7.50816 22.975 7.50816 30.4929C7.50816 35.5773 8.26877 40.4853 9.68226 45.1077C5.62459 39.7639 2.62133 33.5778 0.976061 26.8596C1.59793 33.8781 3.71817 40.8754 7.47389 47.3798C10.0169 51.7835 13.1295 55.6534 16.6649 58.9489C10.4788 56.3504 4.78564 52.4951 0 47.4973C4.04788 53.2639 9.38357 58.265 15.8879 62.019C20.2916 64.562 24.9222 66.3558 29.6311 67.4429C22.9684 68.2867 16.1017 67.7922 9.45212 65.8515C15.8455 68.8286 22.975 70.4902 30.4929 70.4902C35.5773 70.4902 40.4853 69.7296 45.1077 68.3161C39.7639 72.3738 33.5778 75.377 26.8596 77.0223C33.8781 76.4004 40.8754 74.2786 47.3798 70.5245C51.7835 67.9815 55.6534 64.8689 58.9489 61.3335C56.3504 67.5196 52.4951 73.2127 47.4973 77.9984C53.2639 73.9505 58.265 68.6148 62.019 62.1104C64.562 57.7067 66.3558 53.0762 67.4429 48.3672C68.2867 55.0299 67.7922 61.8966 65.8515 68.5462C68.8286 62.1529 70.4902 55.0234 70.4902 47.5054C70.4902 42.4211 69.7296 37.5131 68.3161 32.8906C72.3738 38.2345 75.377 44.4206 77.0223 51.1387C76.4004 44.1202 74.2786 37.123 70.5245 30.6186C67.9815 26.2149 64.8689 22.3449 61.3335 19.0495C67.5196 21.648 73.2127 25.5033 77.9984 30.5011H78ZM50.2508 28.9521C52.0316 30.6121 53.5985 32.5609 54.8798 34.7791C56.7715 38.055 57.839 41.5789 58.1523 45.1143C57.3232 41.7307 55.8101 38.6148 53.7666 35.9233C54.4782 38.2508 54.8618 40.7236 54.8618 43.2846C54.8618 47.0713 54.0245 50.6621 52.5245 53.8825C53.5022 50.5332 53.7503 47.0745 53.3259 43.7187C52.7775 46.0903 51.8749 48.4227 50.5936 50.6409C48.7019 53.9168 46.1834 56.605 43.2797 58.6436C45.7965 56.2345 47.7388 53.3651 49.0479 50.2508C47.3879 52.0316 45.4391 53.5985 43.2209 54.8798C39.945 56.7715 36.4211 57.839 32.8857 58.1523C36.2693 57.3232 39.3868 55.8101 42.0767 53.7666C39.7492 54.4782 37.2764 54.8618 34.7155 54.8618C30.9287 54.8618 27.3379 54.0245 24.1175 52.5261C27.4668 53.5038 30.9255 53.7519 34.2813 53.3275C31.9097 52.7807 29.5773 51.8765 27.3591 50.5952C24.0832 48.7035 21.395 46.185 19.3564 43.2813C21.7655 45.7982 24.6349 47.7405 27.7492 49.0495C25.9684 47.3896 24.4015 45.4407 23.1202 43.2225C21.2285 39.9467 20.161 36.4227 19.8477 32.8874C20.6768 36.2709 22.1882 39.3868 24.2334 42.0783C23.5218 39.7508 23.1382 37.278 23.1382 34.7171C23.1382 30.9304 23.9755 27.3395 25.4739 24.1192C24.4962 27.4684 24.2481 30.9271 24.6725 34.2829C25.2193 31.9113 26.1235 29.5789 27.4048 27.3607C29.2965 24.0849 31.815 21.3966 34.7187 19.358C32.2019 21.7671 30.2595 24.6366 28.9505 27.7508C30.6104 25.9701 32.5593 24.4032 34.7775 23.1219C38.0533 21.2301 41.5773 20.1627 45.1126 19.8493C41.7274 20.6785 38.6115 22.1915 35.9217 24.235C38.2492 23.5234 40.722 23.1398 43.2829 23.1398C47.0696 23.1398 50.6605 23.9772 53.8808 25.4755C50.5316 24.4978 47.0729 24.2497 43.7171 24.6741C46.0887 25.2209 48.4211 26.1251 50.6393 27.4064C53.9151 29.2982 56.6034 31.8166 58.642 34.7203C56.2329 32.2035 53.3634 30.2612 50.2492 28.9521H50.2508Z" fill="url(#paint0_linear_1611_392)"/>
</g>
<defs>
<linearGradient id="paint0_linear_1611_392" x1="39" y1="0" x2="39" y2="77.9984" gradientUnits="userSpaceOnUse">
<stop stop-color="#D47B37"/>
<stop offset="1" stop-color="#D4AF37"/>
</linearGradient>
<clipPath id="clip0_1611_392">
<rect width="78" height="78" fill="white"/>
</clipPath>
</defs>
</svg>
