<svg width="22" height="22" viewBox="0 0 22 22" fill="none" xmlns="http://www.w3.org/2000/svg">
<path d="M11 21C16.523 21 21 16.523 21 11C21 5.477 16.523 1 11 1C5.477 1 1 5.477 1 11C1 16.523 5.477 21 11 21Z" stroke="#FFE695" stroke-width="2" stroke-linejoin="round"/>
<path d="M11 21C14.866 21 18 17.866 18 14C18 10.134 14.866 7 11 7C7.134 7 4 10.134 4 14C4 17.866 7.134 21 11 21Z" stroke="#FFE695" stroke-width="2" stroke-linejoin="round"/>
<path d="M11 21C12.06 21 13.08 20.58 13.83 19.83C14.58 19.08 15 18.06 15 17C15 15.94 14.58 14.92 13.83 14.17C13.08 13.42 12.06 13 11 13C9.94 13 8.92 13.42 8.17 14.17C7.42 14.92 7 15.94 7 17C7 18.06 7.42 19.08 8.17 19.83C8.92 20.58 9.94 21 11 21Z" stroke="#FFE695" stroke-width="2" stroke-linejoin="round"/>
</svg>
